<?xml version="1.0" encoding="utf-8"?>
<!-- Generator: Adobe Illustrator 19.0.0, SVG Export Plug-In . SVG Version: 6.00 Build 0)  -->
<svg version="1.1" id="Layer_1" xmlns="http://www.w3.org/2000/svg" xmlns:xlink="http://www.w3.org/1999/xlink" x="0px" y="0px"
	 viewBox="0 0 978 815.6" style="enable-background:new 0 0 978 815.6;" xml:space="preserve">
<style type="text/css">
	.st0{fill:#0092FF;}
</style>
<g>
	<path class="st0" d="M231.8,423.4c-0.6,0-1.2-0.2-1.7-0.5c-0.6-0.4-15.9-9.9-31.5-23.3c-21.3-18.5-32.1-34.9-32.1-48.7
		c0.1-19.2,15.4-40.5,37.2-40.5c9.7,0,17,4.1,26.4,11.6c4.7-3.7,10.3-6.8,16.2-8.8c4.9-1.9,9.4-2.8,13.4-2.8
		c21.8,0,37.2,21.4,37.2,40.5c0.1,13.8-10.7,30.2-32.1,48.7c-15.5,13.5-30.8,22.9-31.5,23.3C232.9,423.2,232.3,423.4,231.8,423.4z
		 M203.8,316.7c-14.5,0-30.8,14.1-30.9,34.2c-0.1,11.7,10.3,26.9,29.8,43.8c12.3,10.6,24.7,18.9,29.1,21.7
		c4.4-2.8,16.8-11.1,29.1-21.7c19.6-16.9,29.9-32.1,29.8-43.8c-0.1-20.2-16.4-34.2-30.9-34.2c-3.2,0-7.1,0.8-11.2,2.4
		c0,0-0.1,0-0.1,0c-4.8,1.6-9.4,4.1-13.3,7c3,2.9,9.7,10.6,6.9,18.4c-1.8,5-6.2,8.1-11.5,8.1l0,0c-3.9,0-7.7-1.7-10-4.5
		c-2.1-2.5-2.9-5.7-2.2-9c0.8-4.4,3.3-8.7,7.1-12.8C216.3,319.1,210.8,316.7,203.8,316.7z M230.3,330.4c-3.1,3.3-5.1,6.7-5.7,10
		c-0.3,1.5,0,2.7,0.9,3.8c1.1,1.4,3.1,2.2,5.1,2.2c1.5,0,4.3-0.5,5.5-3.9C237.4,338.5,233.1,333,230.3,330.4z"/>
	<path class="st0" d="M391.3,153.5c-0.3,0-0.6,0-0.9-0.1c-1.9-0.5-3.1-2.5-2.6-4.4c9.2-36.6-13.2-61.9-37.9-76.9
		C335,63,320,61.5,311.8,46.7c-42.3,18.6-90.8,17.9-140.1,17.7c-50.5-0.3-88.6,18.4-100,34.1c-3.4,4.7-3.8,11-1.1,19.2
		c0.6,1.9-0.4,4-2.3,4.6c-1.9,0.6-4-0.4-4.6-2.3c-3.5-10.4-2.8-19.1,2.1-25.8c13.6-18.7,51.2-37.4,105.9-37.1
		c48.7,0.2,95.8,1.1,137-17c-1.3-3.6-2.3-7.4-2.7-11.6c-1-8.2,2.9-14.2,10.2-16.1c7.5-1.9,18.1,1.5,20.9,8.7c1.5,3.8,1.9,11.3-12,19
		c-2.2,1.2-4.5,2.4-6.8,3.5c7.3,12.9,20.9,13.5,35.3,22.3c24.4,14.8,51.5,43.8,41.2,84.9C394.4,152.4,393,153.5,391.3,153.5z
		 M319.5,19.2c-0.5,0.1-0.9,0.1-1.4,0.2c-3.8,0.9-5.3,3.6-4.8,8.2c0.4,3.4,1.1,6.5,2.1,9.4c2.1-1,4.2-2.1,6.3-3.3
		c6.4-3.5,9.8-7.3,8.7-10C329.4,21.1,324.2,18.7,319.5,19.2z"/>
	<path class="st0" d="M75.5,377.4c-3.2,0-6.3-0.9-8.6-2.7c-4-3.1-8.7-10.8,3.2-28.4C26.2,299.8,31.8,269.4,37.2,240
		c2.6-14.3,5.1-27.8,1.8-43c-0.4-1.7,0.7-3.4,2.4-3.8c1.7-0.4,3.4,0.7,3.8,2.4c3.6,16.4,0.9,31.2-1.7,45.4
		c-2.7,14.9-5.6,30.3-1.2,47.8c4.2,16.6,14.6,33.8,31.7,52.1c37.1-46.3,112.4-33.7,137.6-29.5c1.1,0.2,2.1,0.3,3,0.5
		c1.7,0.3,2.9,1.9,2.6,3.6c-0.3,1.7-1.9,2.9-3.6,2.6c-0.9-0.1-1.9-0.3-3-0.5c-24.4-4.1-97.5-16.3-132.1,27.9c2,2.1,4.2,4.2,6.4,6.3
		c10.6,10.1,5.5,17.7,3.6,19.9C85.3,375.4,80.3,377.4,75.5,377.4z M74.6,350.9c-5.8,9-7.3,16.1-3.8,18.8c3.1,2.5,9.8,1.4,12.8-2
		c3.2-3.7,0-8.1-3.2-11.1C78.4,354.6,76.5,352.8,74.6,350.9z"/>
	<path class="st0" d="M328.6,290.4c-4.1,0.5-6.2,4.8-5.9,8.1c0.7,6.1,13.8,12.3,13.8,12.3s11.4-8.9,10.7-15
		c-0.4-3.3-3.5-7.1-7.5-6.6c-1.9,0.2-4.1,1.7-5.3,3C333,291.1,330.5,290.2,328.6,290.4L328.6,290.4z"/>
	<g>
		<path class="st0" d="M51.8,157.1c0.5,4.6,2.1,6.9,5.5,6.5c6.3-0.7,12.3-14.4,10.5-31.1c-1.3-11.3-7.1-20-18.2-18.8
			c-13.9,1.6-16.4,12-15.4,20.8c0.9,8,5.5,12.2,5.9,12.4c0.9-0.4,1.3,0.2,1.4,1c0.2,2.2-1.5,5.2-3.5,5.4c-0.4,0-0.8,0-1.3-0.3
			c-0.3-0.1-7.6-5.6-9-17.3c-1.7-15.2,6.8-26.9,21.4-28.5c15.5-1.7,23.7,10.4,25.3,23.8c2.7,23.7-7.6,38-16.8,39
			c-7.8,0.9-11.3-3.8-12.2-12.7l-3.6-32c-0.2-1.6-0.6-2-0.6-2.6c-0.1-0.8,0.8-1.5,2-1.7c2.8-0.3,4.9,1.1,5.1,3.1L51.8,157.1z"/>
		<path class="st0" d="M116.9,148.6c-0.5,4.6-3.5,8.8-9.2,9.4c-1.5,0.2-2.9,0.2-4.2-0.1c-1.7,3.8-4.6,6.6-9.3,7.1
			c-8.4,0.9-13-5.8-13.9-14.2c-1.4-12.3,4.5-20.5,6.3-20.7c2.2-0.2,4.3,4,2.3,5.7c-1.1,2.2-3.3,5.5-2.3,13.8c0.8,7,3.9,10.2,7.2,9.8
			c2.3-0.3,3.7-1.7,4.6-3.7c-4.3-2.9-7-8.2-7.7-14.2c-0.6-5.3,1.2-10,5.7-10.5c3.9-0.4,7.8,5.1,8.7,13.2c0.3,3.1,0.4,6.2-0.2,9.1
			c0.6,0.1,1.1,0,1.7,0c3.6-0.4,5.2-3.4,5.3-6.7C112,144.8,117.5,143.8,116.9,148.6z M99.4,150.2c0-1.4,0-2.6-0.2-3.9
			c-0.6-5.7-1.4-9.8-3.1-9.6c-0.9,0.1-1.3,1.5-1,4.1C95.5,144.5,97.2,147.9,99.4,150.2z"/>
		<path class="st0" d="M161.8,140.2c1.3-0.2,3.1,1.5,3.3,3.1c0,0.1,0.1,0.5,0,0.8c-1.7,10-6,15.5-10.1,19.9l1.6,14.4
			c1,8.8-3.1,12.4-7.3,12.8c-4.7,0.5-8.5-3.4-9.1-8.7c-0.9-8.4,3.4-13.2,8.4-18.7l-1.2-10.6c-1.6,3.6-3.9,6.3-7.5,6.7
			c-5.6,0.6-9.4-3.8-10.2-11c-1-8.9,0.9-19.1,0.9-19.1c0.4-1.5-0.3-3.1,4.1-3.6c4.1-0.5,2,3.2,1.9,4.4c-0.8,6.3-1.3,10.1-0.5,17.1
			c0.5,4.5,2.2,6.8,4.6,6.5c3.3-0.4,5.2-6.1,5.6-12l-1.5-13.4c-0.2-1.6-0.6-2-0.6-2.6c-0.1-0.8,0.8-1.5,2-1.7
			c2.8-0.3,4.7,1.2,4.9,3.2l3.3,29.3c2.6-3.7,4.8-8.2,5.9-14.1C160.4,141.1,161,140.3,161.8,140.2z M150.3,179.2l-1-8.9
			c-2.4,3.1-3.8,6.4-3.3,11.4c0.3,2.6,1.4,4.5,2.7,4.3C151.4,185.8,150.5,180.8,150.3,179.2z"/>
		<path class="st0" d="M195.8,139.8c-0.5,4.6-3.5,8.8-9.2,9.4c-1.5,0.2-2.9,0.2-4.2-0.1c-1.7,3.8-4.6,6.6-9.3,7.1
			c-8.4,0.9-13-5.8-13.9-14.2c-1.4-12.3,4.5-20.5,6.3-20.7c2.2-0.2,4.3,4,2.3,5.7c-1.1,2.2-3.3,5.5-2.3,13.8c0.8,7,3.9,10.2,7.2,9.8
			c2.3-0.3,3.7-1.7,4.6-3.7c-4.3-2.9-7-8.2-7.7-14.2c-0.6-5.3,1.2-10,5.7-10.5c3.9-0.4,7.8,5.1,8.7,13.2c0.3,3.1,0.4,6.2-0.2,9.1
			c0.6,0.1,1.1,0,1.7,0c3.6-0.4,5.2-3.4,5.3-6.7C190.9,135.9,196.4,135,195.8,139.8z M178.3,141.3c0-1.4,0-2.6-0.2-3.9
			c-0.6-5.7-1.4-9.8-3.1-9.6c-0.9,0.1-1.3,1.5-1,4.1C174.4,135.6,176.1,139,178.3,141.3z"/>
		<path class="st0" d="M208.1,146.2c-1.6,3.7-4,6.5-7.7,7c-5.6,0.6-9.4-3.8-10.2-11c-1-8.8,0.9-19.1,0.9-19.1
			c0.4-1.5-0.3-3.1,4.1-3.6c4.1-0.5,2,3.2,1.9,4.4c-0.8,6.3-1.3,10.1-0.5,17.1c0.5,4.5,2.2,6.8,4.6,6.5c3.3-0.4,5.2-6.1,5.6-12
			l-1.5-13.4c-0.3-2.4-1.1-2.5-1.2-3.1c-0.1-0.6,1.4-1.1,2.6-1.2c2.8-0.3,4.7,1.2,4.9,3.2l2.4,21.2c0.1,0.8,0.4,3.8,2.6,3.6
			c3.3-0.4,4.2-5.9,4.6-9.6c0.1-1.8,0.9-2.6,1.7-2.7c1.3-0.2,3.1,1.5,3.3,3.1c0,0.1,0,0.3,0,0.6c-0.9,5.7-3.3,13.6-10.5,14.4
			C211.8,151.8,209,149.5,208.1,146.2z"/>
		<path class="st0" d="M235.3,94.7c-0.3-2.4-1.1-2.5-1.2-3.1c-0.1-0.6,1.4-1.1,2.6-1.2c2.8-0.3,4.7,1.2,4.9,3.2l2.9,26
			c2.3-4,5.2-7.6,9-8c5.2-0.6,7.9,3.5,8.4,8.2c0.7,6.4-3.4,11.7-6.5,14.5c1.2,3.5,3.5,6.6,6.7,6.3c3.8-0.4,6.1-6,6.4-9.8
			c0.4-5.2,5.4-1.8,5,1c-1,4.7-4.1,13.6-11.7,14.4c-6.6,0.7-11.8-6.3-12.4-11.8c-0.3-2.6,7.2-6.1,6.3-13.8c-0.2-2.1-1.5-3.4-3.1-3.2
			c-2,0.2-5.5,3.3-7.1,12.5l1.6,14.4c0.2,1.6,0.5,3.6-1.9,3.9c-1.7,0.2-4.1-0.1-4.4-3.2L235.3,94.7z"/>
		<path class="st0" d="M267.2,115.1c-0.2-1.6-0.6-2-0.6-2.6c-0.1-0.8,0.8-1.5,2-1.7c2.8-0.3,4.7,1.2,4.9,3.2l0.4,3.8
			c1.7-4.9,4.3-8.9,8.4-9.3c5.6-0.6,7.4,3.8,7.9,7.7l1.9,17.3c0.1,0.8,0.4,3.8,2.6,3.6c3.3-0.4,4.2-5.9,4.6-9.6
			c0.1-1.8,0.9-2.6,1.7-2.7c1.3-0.2,3.1,1.5,3.3,3.1c0,0.1,0,0.3,0,0.6c-0.8,5.7-3.3,13.6-10.5,14.4c-4.4,0.5-7.4-2.8-7.9-7.1
			l-1.9-16.9c-0.3-2.6-0.7-4.7-2.3-4.6c-2.4,0.3-6.8,8-6.6,14.7l1.4,12.2c0.2,1.6,0.5,3.6-1.9,3.9c-1.7,0.2-4.1-0.1-4.4-3.2
			L267.2,115.1z"/>
		<path class="st0" d="M334.5,124.1c-0.5,4.6-3.5,8.8-9.2,9.4c-1.5,0.2-2.9,0.2-4.2-0.1c-1.7,3.8-4.6,6.6-9.3,7.1
			c-8.4,0.9-13-5.8-13.9-14.2c-1.4-12.3,4.5-20.5,6.3-20.7c2.2-0.2,4.3,4,2.3,5.7c-1.1,2.2-3.3,5.5-2.3,13.8c0.8,7,3.9,10.2,7.2,9.8
			c2.3-0.3,3.7-1.7,4.6-3.7c-4.3-2.9-7-8.2-7.7-14.2c-0.6-5.3,1.2-10,5.7-10.5c3.9-0.4,7.8,5.1,8.7,13.2c0.3,3.1,0.4,6.2-0.2,9.1
			c0.6,0.1,1.1,0,1.7,0c3.6-0.4,5.2-3.4,5.3-6.7C329.6,120.3,335.1,119.3,334.5,124.1z M316.9,125.7c0-1.4,0-2.6-0.2-3.9
			c-0.6-5.7-1.4-9.8-3.1-9.6c-0.9,0.1-1.3,1.5-1,4.1C313.1,120,314.7,123.4,316.9,125.7z"/>
		<path class="st0" d="M342.5,106.6c-0.2-1.6-0.6-2-0.6-2.6c-0.1-0.8,0.8-1.5,2-1.7c2.8-0.3,4.7,1.2,4.9,3.2l2.1,19.1
			c0.5,3.5,1.5,5.8,4.8,5.5c3.2-0.4,3.9-3.2,3.5-6.4l-2.1-18.7c-0.2-1.6-0.6-2-0.6-2.6c-0.1-0.8,0.8-1.5,2-1.7
			c2.8-0.3,4.7,1.2,4.9,3.2l2.2,19.1c0.6,5.2-0.3,11.6-8.9,12.6c-3.6,0.4-6.6-1.1-8.1-3.2c-0.8,2.3-4,4.5-7.1,4.9
			c-9.3,1-11-5.9-11.5-10.4l-2.1-18.6c-0.2-1.6-0.6-2.1-0.6-2.6c-0.1-0.8,0.8-1.5,2-1.7c2.8-0.3,4.7,1.2,4.9,3.2l2.2,19.1
			c0.3,3,1.2,5.9,4.8,5.5c3.2-0.4,3.9-3.2,3.5-6.4L342.5,106.6z"/>
		<path class="st0" d="M75.4,196.9l-1.7-14.1c-0.3-2.4-1.2-2.5-1.2-3.1c-0.1-0.6,1.4-1.1,2.6-1.2c2.8-0.3,4.7,1.1,5,3.1l1.8,14.6
			c5.1-0.6,10.9-1.4,16.6-2.4c2-2.8,2.3,5.3,0.1,5.7c-6.7,1-11.6,1.6-16,2.1l3.3,26.4c0.3,2.7,1.6,3.7,3.3,3.5
			c3.3-0.4,4.2-5.9,4.5-9.7c0.1-1.8,0.9-2.6,1.7-2.8c1.3-0.2,3.1,1.5,3.3,3.1c0,0.1,0,0.3,0,0.6c-0.7,5.7-3.1,13.6-10.3,14.5
			c-4.5,0.6-8-1.7-8.8-8.3L76,202.4c-3.7,0.5-5.8,0.5-5.8,0.5c-2.7,0.3-4.9-5.1-2.4-5.4C67.8,197.6,70.8,197.4,75.4,196.9z"/>
		<path class="st0" d="M88.9,182.6c-0.3-2.4-1.2-2.5-1.2-3.1c-0.1-0.6,1.4-1.1,2.6-1.2c2.8-0.3,4.7,1.1,5,3.1l3.4,27.3
			c1.7-4.9,4.2-8.9,8.3-9.4c5.6-0.7,7.5,3.7,8,7.6l2.1,17.3c0.1,0.8,0.5,3.8,2.6,3.6c3.3-0.4,4.2-5.9,4.5-9.7c0.4-5.2,5.4-1.8,5,0.9
			c-0.8,5.7-3.1,13.6-10.3,14.5c-4.4,0.5-7.4-2.7-8-7l-2.1-16.9c-0.3-2.6-0.8-4.7-2.3-4.5c-2.4,0.3-6.7,8.1-6.5,14.8l1.5,12.2
			c0.2,1.6,0.5,3.6-1.9,3.9c-1.7,0.2-4.1-0.1-4.5-3.2L88.9,182.6z"/>
		<path class="st0" d="M131.8,221c1.5,2.7,4.1,4.7,8.4,4.2c6.5-0.8,8.5-6.6,8.9-11.8c0.3-3.8,5.2-2.8,5.2,0.2
			c0,5.2-2,15.7-14.3,17.2c-7.6,0.9-15.5-4.3-16.8-14.7c-1.3-10.6,4-19.3,10.5-20.1c4.7-0.6,7.9,2.5,8.5,7.5
			C142.9,209.7,139.6,217.6,131.8,221z M130.2,216.5c3.9-2.4,6.1-7.1,5.4-12.1c-0.2-1.8-1-2.8-2.1-2.7c-4.1,0.5-4.2,9.8-3.6,13.3
			C130,215.6,130.1,216,130.2,216.5z"/>
		<path class="st0" d="M165.6,197.1c-0.2-1.6-0.6-2-0.7-2.6c-0.1-0.8,0.8-1.5,2-1.7c2.8-0.3,4.7,1.1,5,3.1l2.8,22.4
			c0.2,1.6,0.7,2.5,2.2,2.4c4.1-0.5,8.1-6.8,6.9-16.4c-0.8-6.8-3.4-8.2-4.6-8.9c-0.5-0.3-1.2-0.1-1.3-0.6c-0.2-1.5,1.3-4.3,2.9-4.5
			c3.3-0.4,8.3,6.3,9.2,13.5c1.4,11.3-3.7,21.4-13.5,22.6c-5.3,0.7-7.5-2.8-8.1-7.3L165.6,197.1z"/>
		<path class="st0" d="M223.8,205.7c0.1-1.8,0.9-2.6,1.7-2.8c1.3-0.2,3.1,1.5,3.3,3.1c0,0.1,0,0.3,0,0.6
			c-0.7,5.7-3.1,13.6-10.3,14.5c-2.9,0.4-5.3-0.8-6.8-2.6c-1.4,2.1-3.6,3.9-6.7,4.3c-6.5,0.8-10.6-4.3-11.5-11.4
			c-1.7-13.9,6.9-23.6,17.1-24.9c2.3-0.3,4,0.9,4.3,3c0.2,1.4,0,2-0.8,2.1c-0.8,0.1-1.6,0-2.4,0.1c-6.3,0.8-13.1,7.1-11.6,19.1
			c0.5,4.3,2.7,6.6,5.6,6.2c2.3-0.3,3.5-2.5,4.1-4.9l-1.6-12.8c-0.2-1.6-0.6-2-0.7-2.6c-0.1-0.8,0.8-1.5,2-1.7
			c2.8-0.3,4.7,1.1,5,3.1l1.7,13.8c0.2,1.8,1.3,3.7,3.3,3.5C222.7,215,223.5,209.5,223.8,205.7z"/>
		<path class="st0" d="M247.4,204.4c-0.9,4.7-4,13.6-11.6,14.6c-6.4,0.8-10.4-3.2-11.2-9.8l-4.7-37.9c-0.8-6.3,2.1-11.1,6.3-11.6
			c7.3-0.9,8.5,7.8,9.1,12.5c1.5,12.3-4,30-4.9,31.2l0.6,4.8c0.4,3.3,2,5.6,5.1,5.2c3.8-0.5,6-6.1,6.3-9.8
			C242.8,198.5,247.7,201.6,247.4,204.4z M229,192.4c1.3-3.7,1.7-14.9,1.1-19.5c-0.7-5.5-1.9-7.9-3.2-7.7c-0.9,0.1-1,2.2-0.8,3.5
			L229,192.4z"/>
		<path class="st0" d="M259.7,210c-1.6,3.8-3.9,6.6-7.6,7c-5.6,0.7-9.4-3.7-10.3-10.9c-1.1-8.8,0.7-19.1,0.7-19.1
			c0.4-1.5-0.4-3.1,4-3.6c4.1-0.5,2.1,3.1,1.9,4.4c-0.7,6.4-1.2,10.1-0.3,17.1c0.6,4.5,2.3,6.7,4.7,6.4c3.3-0.4,5.2-6.1,5.4-12.1
			l-1.7-13.4c-0.3-2.4-1.2-2.5-1.2-3.1c-0.1-0.6,1.4-1.1,2.6-1.2c2.8-0.3,4.7,1.1,5,3.1l2.6,21.2c0.1,0.7,0.5,3.8,2.6,3.6
			c3.3-0.4,4.2-5.9,4.5-9.7c0.1-1.8,0.9-2.6,1.7-2.8c1.3-0.2,3.1,1.5,3.3,3.1c0,0.1,0,0.3,0,0.6c-0.8,5.7-3.1,13.6-10.3,14.5
			C263.5,215.5,260.7,213.3,259.7,210z"/>
		<path class="st0" d="M280.2,202.6c1.5,2.7,4.1,4.7,8.4,4.2c6.5-0.8,8.5-6.6,8.9-11.8c0.3-3.8,5.2-2.8,5.2,0.2
			c0,5.2-2,15.7-14.3,17.2c-7.6,0.9-15.5-4.3-16.8-14.7c-1.3-10.6,4-19.3,10.5-20.1c4.7-0.6,7.9,2.5,8.5,7.5
			C291.3,191.3,288,199.2,280.2,202.6z M278.6,198.2c3.9-2.4,6.1-7.1,5.4-12.1c-0.2-1.8-1-2.8-2.1-2.7c-4.1,0.5-4.2,9.8-3.6,13.3
			C278.4,197.2,278.5,197.7,278.6,198.2z"/>
		<path class="st0" d="M351.3,190.8c-0.4,4.6-3.4,8.8-9.1,9.5c-1.5,0.2-2.9,0.2-4.2-0.1c-1.6,3.8-4.5,6.7-9.3,7.2
			c-8.4,1-13.1-5.7-14.1-14c-1.5-12.3,4.2-20.5,6.1-20.7c2.2-0.3,4.4,3.9,2.4,5.6c-1.1,2.2-3.2,5.6-2.2,13.8c0.9,7,4.1,10.2,7.3,9.8
			c2.3-0.3,3.7-1.7,4.5-3.8c-4.3-2.8-7.1-8.1-7.8-14.1c-0.7-5.3,1-10,5.5-10.6c3.9-0.5,7.8,5,8.8,13.1c0.4,3.1,0.4,6.2-0.1,9.1
			c0.6,0.1,1.1,0,1.7,0c3.6-0.4,5.2-3.4,5.3-6.7C346.4,187,351.9,186,351.3,190.8z M333.8,192.5c0-1.4-0.1-2.6-0.2-3.9
			c-0.7-5.7-1.5-9.8-3.2-9.6c-0.9,0.1-1.3,1.5-0.9,4.1C329.9,186.9,331.6,190.2,333.8,192.5z"/>
		<path class="st0" d="M351.3,177.5l0.2,1.8c8.7,8.3,14.8,17.6,16.5,31.4c1.7,13.9-1.4,24.6-8.1,25.4c-5.8,0.7-8.5-5.4-9.2-11.6
			l-5.6-44.9c-0.2-0.1-0.4-0.4-0.6-0.5c-1.5-1.2-2.9-2-3-3.3c-0.1-0.8,0.4-1.9,1.7-2.2c0.2,0,0.7-0.2,1.2-0.2l-2.9-23.7
			c-0.3-2.4-1.2-2.5-1.2-3.1c-0.1-0.6,1.4-1.1,2.6-1.2c2.8-0.3,4.7,1.1,5,3.1l2.9,23.6c3.8-0.8,8-1.6,10.3-1.9
			c1.8-0.2,3.5,0.2,3.7,1.9c0.1,1.2,0.2,5.3-0.9,5.4c-0.5,0.1-0.4-0.8-2.7-0.7L351.3,177.5z M352.6,188.1l4.4,35.7
			c0.3,2.7,1.1,6.4,2.8,6.2c2.4-0.3,3.2-7.8,1.9-18.4C360.8,203.9,357.6,195.3,352.6,188.1z"/>
		<path class="st0" d="M159.7,274.1c0.2-1.8,1-2.6,1.9-2.6c1.3-0.1,3,1.7,3.1,3.3c0,0.1,0,0.3-0.1,0.6c-1.1,5.6-4.1,13.4-11.3,13.7
			c-2.9,0.2-5.3-1.1-6.7-3.1c-1.6,2-3.8,3.7-7,3.8c-6.5,0.4-10.3-5-10.7-12.1c-0.8-14,8.5-23.1,18.7-23.7c2.3-0.1,3.9,1.1,4.1,3.3
			c0.1,1.4-0.1,1.9-1,2c-0.8,0-1.6-0.1-2.4,0c-6.4,0.3-13.5,6.2-12.9,18.3c0.2,4.4,2.2,6.8,5.2,6.6c2.3-0.1,3.7-2.2,4.5-4.6
			l-0.7-12.9c-0.1-1.6-0.5-2.1-0.5-2.7c0-0.8,0.9-1.5,2.1-1.5c2.8-0.2,4.6,1.4,4.7,3.4l0.8,13.8c0.1,1.8,1.1,3.8,3.1,3.7
			C157.9,283.3,159.1,277.8,159.7,274.1z"/>
		<path class="st0" d="M178.3,272.1c0.6-3.7,2.1-8.6,3.4-13.1c-0.9-1.2-1.5-2.4-1.6-3.9c-0.2-2.9,4.5-6.9,6.8-7
			c2-0.1,3.1,1.3,3.2,3.6c0.1,2.4-1.6,5.3-1.7,5.8c4.3,6.7,9.6,9.5,10,17.5c0.1,1-0.1,2.1-0.3,3c3.9-1.1,5.8-3.7,6.5-6.4
			c0.5-1.6,1-2.3,1.8-2.4c1.4-0.1,3.1,2,3.2,3.2c0.1,1.7-1.7,5-3.5,6.7c-2.5,2.2-5.8,4-11,4.6c-1.9,1.9-4.6,3.3-8.1,3.5
			c-3.5,0.2-7.7-1.5-9.4-3c-4.3-3.7-2.3-8.3-0.5-8.4c1.7-0.1,9.6,4.4,13.8,4.1c0.9-1.1,1.7-3.1,1.6-5.2c-0.3-5.3-3.6-8.6-6.7-11.5
			c-1.2,3.3-1.8,6.2-2.7,10.3C182.5,277.1,177.8,275,178.3,272.1z"/>
		<path class="st0" d="M244.1,284.1c-4.4,0.2-7.2-3.2-7.5-7.5l-0.9-17c-0.1-2.6-0.4-4.8-1.9-4.7c-2.3,0.1-6.6,7.6-6.8,14.3l0.7,12.2
			c0.1,1.6,0.3,3.6-2.2,3.7c-1.7,0.1-4.1-0.4-4.2-3.5l-1.2-21.2c-0.1-2.6-0.4-4.8-1.9-4.7c-2.3,0.1-6.6,7.6-6.8,14.3l0.7,12.2
			c0.1,1.6,0.3,3.6-2.1,3.7c-1.7,0.1-4.1-0.4-4.2-3.5l-1.5-26.6c-0.1-1.6-0.5-2.1-0.5-2.7c0-0.8,0.9-1.5,2.1-1.5
			c2.8-0.2,4.6,1.4,4.7,3.4l0.2,3.5c1.9-4.7,4.7-8.3,8.4-8.5c5-0.3,6.7,3.8,7.1,7.5c1.9-4.6,4.6-8.2,8.4-8.4c5.5-0.3,7,4.2,7.2,8.1
			l1,17.4c0,0.8,0.2,3.9,2.4,3.7c3.4-0.2,4.6-5.6,5.1-9.4c0.2-1.8,1-2.6,1.9-2.6c1.3-0.1,3,1.7,3.1,3.3c0,0.1,0,0.3-0.1,0.6
			C254.2,276,251.3,283.7,244.1,284.1z"/>
		<path class="st0" d="M248.3,235.9c-0.2-2.9,2-5.2,4.8-5.4c2.9-0.2,5.2,1.9,5.4,4.8c0.2,2.8-1.9,5.2-4.8,5.4
			C250.9,240.9,248.5,238.7,248.3,235.9z M257.4,273.9c0,0.8,0.2,3.9,2.4,3.7c3.4-0.2,4.6-5.6,5.1-9.4c0.7-5.2,5.5-1.5,4.9,1.2
			c-1.2,5.6-4.1,13.3-11.3,13.7c-4.4,0.2-7.2-3.2-7.5-7.5l-1.2-22.4c-0.1-1.6-0.5-2.1-0.5-2.7c0-0.8,0.9-1.5,2.1-1.5
			c2.8-0.2,4.6,1.4,4.7,3.4L257.4,273.9z"/>
		<path class="st0" d="M288.5,268.6c-1.3,4.6-4.9,13.3-12.5,13.7c-6.5,0.4-10.1-3.9-10.5-10.5l-2.1-38.2c-0.3-6.3,2.8-10.9,7-11.2
			c7.4-0.4,8,8.4,8.2,13.1c0.7,12.3-6,29.7-7.1,30.8l0.3,4.9c0.2,3.4,1.7,5.7,4.8,5.5c3.9-0.2,6.4-5.7,7-9.4
			C284.3,262.3,289,265.9,288.5,268.6z M271,255.3c1.6-3.6,2.7-14.8,2.5-19.4c-0.3-5.5-1.4-8-2.7-7.9c-0.9,0.1-1.1,2.1-1.1,3.4
			L271,255.3z"/>
		<path class="st0" d="M290.8,270.7c1.3,2.8,3.7,5,8.1,4.8c6.5-0.4,8.9-6,9.7-11.1c0.5-3.8,5.3-2.4,5.2,0.6
			c-0.3,5.1-3.1,15.5-15.4,16.2c-7.6,0.4-15.2-5.3-15.8-15.8c-0.6-10.7,5.4-19,11.8-19.3c4.7-0.3,7.7,3,8,8.1
			C302.7,260.2,298.8,267.9,290.8,270.7z M289.6,266.2c4.1-2.2,6.5-6.7,6.3-11.7c-0.1-1.8-0.8-2.9-1.9-2.8c-4.1,0.2-4.9,9.5-4.5,13
			C289.4,265.2,289.5,265.7,289.6,266.2z"/>
		<path class="st0" d="M320.4,264.7c-0.1-1.3-0.2-3.2-0.2-4.3c0.1-1.9,0.5-2.8,1.6-4c2.7-2.6,9.3-8.7,8.6-20.4
			c-0.6-10.7-6.1-11.5-8.6-11.4c-3.9,0.2-7.8,3.1-7.4,10.8c0.2,3.6,1.7,8.2,3.4,8.1c0.3,0,0.6-0.2,0.7-0.2c0.5,0,0.8,0.3,0.8,0.7
			c0.1,1.3-1.8,3.9-4.5,4c-3.6,0.2-6.5-6.7-6.8-12.2c-0.6-11.3,6.2-16.8,13.4-17.1c9.1-0.5,14.8,6.7,15.3,17.2
			c0.6,11.7-4.8,18.2-9.4,23.2c-0.9,1-0.9,2.2-0.8,3.3l0.2,3.3C327,269.2,320.5,267.9,320.4,264.7z M328.2,275
			c0.1,2.1-1.5,4-3.8,4.2c-2.3,0.1-4.2-1.6-4.3-3.7c-0.1-2.3,1.6-4.1,3.9-4.3C326.2,271.1,328,272.7,328.2,275z"/>
	</g>
	<g>
		<path class="st0" d="M319.7,328c0.7,4.7-1.6,6.8-4,7.2c-0.7,0.1-2.6,0.2-4-1.1c-0.9,1.7-2.5,2.1-3.2,2.2c-2.5,0.4-5.1-0.9-5.8-5.6
			l-2.8-18.3c-0.3-2-0.9-2.7-1.9-2.9c-0.1,0-0.2-0.1-0.2-0.1c-0.1-0.4,1.2-1.6,2.4-1.7c1-0.2,2.3,0.6,2.8,3.9l3,19.1
			c0.5,3.1,1.8,2.8,2.4,2.8c0.6-0.1,1.9-0.3,1.4-3.8l-3.1-19.7c-0.1-0.8-0.3-1-0.4-1.3c-0.1-0.4,0.4-0.8,0.9-0.8
			c1.3-0.2,2.4,0.5,2.5,1.4l3.2,20.3c0.5,3.1,1.8,2.9,2.4,2.8c0.5-0.1,1.9-0.3,1.5-3.4l-3-19.1c-0.5-3.3,0.5-4.4,1.4-4.5
			c1.2-0.2,2.8,0.6,2.8,0.9c0,0.1,0,0.1-0.1,0.2c-1,0.5-1.2,1.3-0.9,3.3L319.7,328z"/>
		<path class="st0" d="M327.1,328.2c0.8,1.3,2,2.2,4.1,1.9c3.1-0.5,4-3.3,4.1-5.8c0.1-1.9,2.5-1.4,2.5,0c0.1,2.5-0.8,7.6-6.7,8.5
			c-3.7,0.6-7.6-1.8-8.4-6.9c-0.8-5.1,1.7-9.4,4.8-9.9c2.3-0.3,3.9,1.1,4.3,3.5C332.3,322.5,330.8,326.4,327.1,328.2z M326.3,326
			c1.9-1.2,2.8-3.5,2.5-5.9c-0.1-0.9-0.5-1.4-1.1-1.3c-2,0.3-1.9,4.8-1.5,6.5C326.1,325.6,326.2,325.8,326.3,326z"/>
		<path class="st0" d="M343.7,324.2c-1-6.2,2.2-10.3,6.5-11.6l-1.4-9.1c-0.2-1.2-0.6-1.2-0.6-1.5c0-0.3,0.7-0.6,1.2-0.6
			c1.3-0.2,2.3,0.5,2.4,1.4l3.4,21.6c0.1,0.9,0.7,1.8,1.7,1.6c1.6-0.3,1.9-2.9,2-4.8c0-0.9,0.4-1.3,0.8-1.4c0.6-0.1,1.5,0.7,1.7,1.4
			c0,0,0,0.1,0,0.3c-0.3,2.8-1.3,6.6-4.8,7.2c-1.4,0.2-2.6-0.3-3.3-1.1c-0.7,1-1.8,1.9-3.3,2.1C346.7,330.4,344.3,328.5,343.7,324.2
			z M352.2,325.2l-1.5-9.9c-2.5,0.9-4.7,3.2-3.9,8.2c0.5,2.9,1.9,3.9,3.3,3.7C351.1,327,351.8,326.2,352.2,325.2z"/>
		<path class="st0" d="M376.1,319.1c-0.1,2.2-1.5,4.3-4.2,4.7c-0.7,0.1-1.4,0.1-2,0c-0.7,1.9-2.1,3.3-4.4,3.6
			c-4.1,0.6-6.4-2.5-7-6.6c-0.9-5.9,1.7-10,2.6-10.1c1-0.2,2.2,1.8,1.2,2.7c-0.5,1.1-1.5,2.7-0.9,6.7c0.5,3.4,2.1,4.9,3.7,4.6
			c1.1-0.2,1.8-0.9,2.1-1.9c-2.1-1.3-3.6-3.8-4-6.7c-0.4-2.5,0.4-4.9,2.5-5.2c1.9-0.3,3.9,2.3,4.5,6.2c0.2,1.5,0.3,3,0.1,4.4
			c0.3,0,0.5,0,0.8,0c1.7-0.3,2.4-1.7,2.4-3.3C373.6,317.3,376.3,316.7,376.1,319.1z M367.6,320.2c0-0.7-0.1-1.3-0.2-1.9
			c-0.4-2.7-0.9-4.7-1.7-4.6c-0.4,0.1-0.6,0.8-0.4,2C365.6,317.5,366.5,319.1,367.6,320.2z"/>
	</g>
</g>
<g>
	<path class="st0" d="M387.6,700.9c0.1,0.8-0.4,1.5-1.3,1.7c-0.8,0.1-1.6-0.4-1.7-1.2c-0.1-0.8,0.4-1.6,1.2-1.7
		C386.7,699.5,387.5,700,387.6,700.9 M386.7,697.1c0.1,0.8-0.3,1.2-0.8,1.3c-0.6,0.1-1.5-0.4-1.6-1.2l-2.4-15.1
		c-0.1-0.6-0.4-0.8-0.4-1c0-0.2,0.2-0.4,0.9-0.5c0.8-0.1,1.8,0,1.9,1L386.7,697.1z"/>
	<path class="st0" d="M63.9,480.9c-0.1-1,1-1.8,2.3-2c3.2-0.4,4.7,0.7,5.7,3.4c0.8,2.3,1.5,5.1,2.3,11.1c4.2,33.6-4.5,57-15.4,58.3
		c-2.7,0.3-6.9-1.2-7.7-7.6l-6.8-54.7c-8.6,2.2-15,9.6-13.5,21.8c1,7.8,5.5,12.3,6.7,12.1c0.6-0.1,1-0.5,1.5-0.6
		c0.5-0.1,0.8,0.4,0.9,1.1c0.5,4.1-3.2,8.4-6.3,6.7c-3.7-1.9-9.4-8.5-10.6-18.3c-2.6-20.6,12.4-29.4,23.9-30.8
		c2-0.3,4.1,1.3,4.4,3.6l7.2,57.7c0.2,1.3,0.7,1.3,1,1.3c2.9-0.4,11-16.7,7.1-48.2C65.5,486,64.1,482.4,63.9,480.9"/>
	<path class="st0" d="M124.6,527.3c-0.5,5.4-4,10.3-10.6,11.1c-1.8,0.2-3.3,0.2-4.9-0.1c-1.9,4.5-5.3,7.8-10.8,8.5
		c-9.8,1.2-15.2-6.6-16.5-16.3c-1.8-14.3,4.9-23.9,7-24.2c2.5-0.3,5.1,4.6,2.8,6.6c-1.3,2.5-3.7,6.5-2.5,16.1
		c1,8.2,4.7,11.9,8.5,11.4c2.7-0.3,4.3-2,5.3-4.4c-5.1-3.3-8.3-9.4-9.2-16.4c-0.8-6.1,1.2-11.7,6.5-12.4c4.6-0.6,9.1,5.9,10.3,15.3
		c0.5,3.6,0.5,7.2,0,10.7c0.7,0.1,1.3,0,2,0c4.2-0.5,6-4,6.1-7.9C118.8,522.9,125.2,521.7,124.6,527.3 M104.1,529.4
		c0-1.6-0.1-3.1-0.3-4.5c-0.8-6.6-1.7-11.4-3.8-11.2c-1.1,0.1-1.5,1.8-1.1,4.8C99.6,522.9,101.5,526.8,104.1,529.4"/>
	<path class="st0" d="M117.5,525.7c-1.4-11.2,3.8-23.3,13-24.4c6.7-0.8,10,5,10.4,8.4c0.5,3.7-6,6.5-5.8,3c-0.7-1.6-1.3-5.2-4.6-4.8
		c-3.6,0.4-6.1,8.1-5,16.8c1,7.7,5.7,11.4,11.4,10.7c7.6-0.9,10.3-7.7,10.7-13.8c0.3-4.5,6-3.2,6.1,0.2c0.1,6-2.7,18.3-17,20.1
		C128,543.1,119,537.7,117.5,525.7"/>
	<path class="st0" d="M156.4,526.9c1.8,3.1,4.7,5.5,9.8,4.9c7.6-0.9,9.9-7.7,10.3-13.7c0.3-4.5,6-3.2,6.1,0.2
		c0.1,6-2.4,18.3-16.7,20.1c-8.8,1.1-18.1-4.9-19.6-17.1c-1.5-12.4,4.7-22.5,12.2-23.4c5.4-0.7,9.3,2.9,10,8.7
		C169.3,513.7,165.4,522.9,156.4,526.9 M167.6,488c0.4,0.4,0.9,0.9,1,1.4c0.1,1.1-1.5,2.5-4.1,2.8c-1.1,0.1-1.9-0.3-2.3-0.7
		l-5.7-6.8l-3.3,7.2c-0.4,0.9-0.7,1.8-2.1,1.9c-1.8,0.2-4.4-1.1-4.6-2.5c0-0.2,0.1-0.3,0.1-0.4l5.6-10.6c0.9-1.9,2.5-3,4.1-3.2
		c2.3-0.3,2.6,0.6,3.6,2.3L167.6,488z M154.5,521.7c4.6-2.8,7.1-8.3,6.3-14.1c-0.3-2.1-1.2-3.3-2.5-3.1c-4.8,0.6-4.9,11.5-4.2,15.5
		C154.3,520.6,154.5,521.1,154.5,521.7"/>
	<path class="st0" d="M204.2,516.1c0.4-4.4,1.8-10.2,2.9-15.6c-1.2-1.3-1.9-2.7-2.1-4.4c-0.4-3.3,4.7-8.4,7.3-8.7
		c2.3-0.3,3.7,1.3,4,3.9c0.4,2.8-1.5,6.3-1.5,6.9c5.6,7.5,11.9,10.3,13.1,19.5c0.1,1.2,0.1,2.5,0,3.6c4.4-1.5,6.4-4.8,7.1-8
		c0.5-1.9,1-2.8,1.9-2.9c1.7-0.2,3.8,2.1,4,3.5c0.2,1.9-1.5,5.9-3.5,8c-2.7,2.8-6.5,5.2-12.4,6.3c-2.1,2.3-5.1,4.2-9.1,4.7
		c-4.1,0.5-9-1.1-11.2-2.7c-5.3-4-3.4-9.5-1.2-9.7c1.9-0.2,11.5,4.3,16.4,3.7c0.9-1.4,1.7-3.8,1.4-6.2c-0.8-6.1-4.9-9.8-8.7-12.8
		c-1.1,4-1.6,7.4-2.3,12.2C209.5,521.5,203.8,519.5,204.2,516.1"/>
	<path class="st0" d="M269.5,509c0.1-2.1,1-3.1,2-3.2c1.6-0.2,3.7,1.7,3.9,3.6c0,0.1,0,0.3,0,0.7c-0.9,6.6-3.6,15.9-12,16.9
		c-3.4,0.4-6.2-0.9-8-3c-1.7,2.5-4.2,4.6-7.9,5c-7.6,0.9-12.4-5-13.4-13.2c-2-16.2,8-27.6,19.9-29.1c2.6-0.3,4.7,1,5,3.5
		c0.2,1.7,0,2.3-1,2.4c-0.9,0.1-1.9,0-2.8,0.2c-7.4,0.9-15.3,8.3-13.5,22.3c0.6,5.1,3.1,7.7,6.5,7.3c2.6-0.3,4.1-2.9,4.8-5.7
		l-1.9-15c-0.2-1.8-0.7-2.4-0.8-3.1c-0.1-1,1-1.8,2.3-2c3.2-0.4,5.5,1.3,5.8,3.6l2,16c0.3,2.1,1.5,4.4,3.9,4.1
		C268.2,519.8,269.1,513.4,269.5,509"/>
	<path class="st0" d="M286,484.6c5.2-0.6,10.9,3.7,12.3,14.6c0.5,3.8,0.5,7.7-0.1,11.3c0.7,0.1,1.4,0,2.1-0.1c4.2-0.5,6-4,6.1-7.9
		c0.1-2.3,6.5-3.5,5.9,2.1c-0.5,5.4-4,10.3-10.6,11.1c-1.8,0.2-3.4,0.2-5-0.1c-1.9,4.5-5.3,7.8-11,8.5c-8.9,1.1-14.6-5-15.7-14.5
		l-5.8-46.4c-0.4-2.8-1.3-2.9-1.4-3.6c-0.1-0.7,1.6-1.3,3-1.5c3.2-0.4,5.5,1.3,5.8,3.6l5.7,45.5c0.8,6.4,3.6,10.9,8.3,10.3
		c2.4-0.3,3.9-1.9,4.8-4.1c-6-3.3-10.3-9.7-11.2-16.6C278.2,489.2,281.4,485.2,286,484.6 M291.3,507.4c0.1-2.3-0.1-4.6-0.3-6.5
		c-0.8-6.5-2.9-10-4.7-9.8c-1.3,0.2-1.5,2.1-1.2,4.8C285.7,500.6,288.1,504.7,291.3,507.4"/>
	<path class="st0" d="M315.2,507.8c1.8,3.1,4.7,5.5,9.8,4.9c7.6-0.9,9.9-7.7,10.3-13.7c0.3-4.5,6-3.2,6.1,0.2
		c0.1,6-2.4,18.3-16.7,20.1c-8.8,1.1-18.1-4.9-19.6-17.1c-1.5-12.3,4.7-22.5,12.2-23.4c5.4-0.7,9.3,2.9,10,8.7
		C328.1,494.7,324.3,503.8,315.2,507.8 M313.3,502.6c4.6-2.8,7.1-8.3,6.3-14.1c-0.3-2.1-1.2-3.3-2.5-3.1c-4.8,0.6-4.9,11.5-4.2,15.5
		C313.1,501.5,313.3,502.1,313.3,502.6"/>
	<path class="st0" d="M104,597.8c-0.6,5.4-4.1,10.2-10.7,11c-1.8,0.2-3.3,0.2-4.8-0.2c-2,4.5-5.4,7.7-10.9,8.3
		c-9.8,1.1-15.2-6.8-16.2-16.5c-1.6-14.3,5.2-23.9,7.4-24.1c2.5-0.3,5.1,4.7,2.7,6.6c-1.3,2.5-3.8,6.4-2.8,16.1
		c0.9,8.2,4.6,11.9,8.4,11.5c2.7-0.3,4.3-2,5.3-4.3c-5-3.4-8.2-9.5-8.9-16.6c-0.7-6.1,1.4-11.7,6.6-12.3c4.6-0.5,9,6,10.1,15.4
		c0.4,3.6,0.4,7.3-0.2,10.7c0.7,0.1,1.3,0.1,2,0c4.2-0.5,6.1-3.9,6.2-7.8C98.3,593.3,104.7,592.2,104,597.8 M83.5,599.6
		c0-1.6,0-3.1-0.2-4.5c-0.7-6.6-1.6-11.5-3.6-11.2c-1.1,0.1-1.5,1.7-1.1,4.8C79,593,80.9,596.9,83.5,599.6"/>
	<path class="st0" d="M117.8,576.9c-0.2-1.9-0.7-2.4-0.7-3.1c-0.1-1,1-1.8,2.3-1.9c3.2-0.4,5.5,1.4,5.7,3.7l2.9,26.2
		c0.2,1.9,0.7,3,2.5,2.8c4.8-0.5,9.5-7.8,8.2-19.1c-0.9-7.9-3.8-9.6-5.2-10.5c-0.5-0.3-1.4-0.1-1.5-0.7c-0.2-1.8,1.6-5,3.5-5.2
		c3.9-0.4,9.6,7.5,10.5,15.9c1.5,13.1-4.6,24.9-16.1,26.1c-6.2,0.7-8.8-3.4-9.3-8.6L117.8,576.9z"/>
	<path class="st0" d="M185.5,587.8c0.2-2.1,1-3.1,2-3.2c1.6-0.2,3.6,1.8,3.9,3.6c0,0.1,0,0.3,0,0.7c-0.9,6.6-3.9,15.8-12.2,16.7
		c-3.4,0.4-6.2-1-7.9-3.2c-1.7,2.5-4.2,4.5-7.9,4.9c-7.6,0.8-12.3-5.1-13.2-13.4c-1.8-16.3,8.4-27.5,20.3-28.8
		c2.6-0.3,4.7,1.1,4.9,3.6c0.2,1.7,0,2.3-1,2.4c-0.9,0.1-1.9,0-2.8,0.1c-7.4,0.8-15.4,8.1-13.8,22.1c0.6,5.1,3,7.7,6.4,7.4
		c2.6-0.3,4.1-2.8,4.9-5.7l-1.7-15c-0.2-1.8-0.7-2.4-0.7-3.1c-0.1-1,1-1.8,2.3-1.9c3.2-0.4,5.5,1.4,5.7,3.7l1.8,16.1
		c0.2,2.1,1.5,4.4,3.8,4.1C184.1,598.6,185.1,592.2,185.5,587.8"/>
	<path class="st0" d="M213,586.6c-1.2,5.5-4.8,15.8-13.7,16.8c-7.5,0.8-12.1-3.9-12.9-11.6l-4.9-44.3c-0.8-7.3,2.6-12.9,7.5-13.5
		c8.6-1,9.8,9.3,10.4,14.7c1.6,14.3-5.1,35-6.2,36.3l0.6,5.6c0.4,3.9,2.3,6.5,5.9,6.1c4.5-0.5,7.1-7,7.5-11.4
		C207.7,579.6,213.5,583.4,213,586.6 M191.7,572.3c1.6-4.3,2.2-17.4,1.6-22.8c-0.7-6.4-2.1-9.2-3.7-9.1c-1.1,0.1-1.2,2.5-1,4.1
		L191.7,572.3z"/>
	<path class="st0" d="M248.7,581.8c-0.6,5.4-4.1,10.2-10.7,11c-1.8,0.2-3.3,0.2-4.8-0.2c-2,4.5-5.4,7.7-10.9,8.3
		c-9.8,1.1-15.2-6.8-16.2-16.5c-1.6-14.3,5.2-23.9,7.4-24.1c2.5-0.3,5.1,4.7,2.7,6.6c-1.3,2.5-3.8,6.4-2.8,16.1
		c0.9,8.2,4.6,11.9,8.4,11.5c2.7-0.3,4.3-2,5.3-4.3c-5-3.4-8.2-9.5-8.9-16.6c-0.7-6.1,1.4-11.7,6.6-12.3c4.6-0.5,9,6,10.1,15.4
		c0.4,3.6,0.4,7.3-0.2,10.7c0.7,0.1,1.3,0.1,2,0c4.2-0.5,6.1-3.9,6.2-7.8C242.9,577.3,249.3,576.2,248.7,581.8 M228.2,583.5
		c0-1.6,0-3.1-0.2-4.5c-0.7-6.6-1.6-11.5-3.6-11.2c-1.1,0.1-1.5,1.7-1.1,4.8C223.7,576.9,225.6,580.9,228.2,583.5"/>
	<path class="st0" d="M254.9,586c-0.7-6.2,0.3-13.3,2.5-22.1l-7.4,0.8l-1.1,0.1c0.3,3.8,0.7,12.3-0.4,18.2c-0.8,4.2-6.3,1.3-5.8-2.1
		c0.6-4,0.1-12.1-0.3-17.1c-2.6-1.1-4.6-2.9-4.9-5.8c-0.3-2.7,1.8-4.7,4.4-5c2.3-0.3,5.2,0.6,6.7,4.5c3.3,0,4.2-0.1,5.2-0.2l5.1-0.6
		c1.2-0.1,5.4,2.7,5.3,4.9c0.1,1.2-3,13.2-1.9,22.9c0.3,2.7,1.9,5.1,4.5,4.8c4.5-0.5,5.4-6.9,5.8-11.3c0.2-2.1,1-3.1,2-3.2
		c1.6-0.2,3.6,1.8,3.9,3.6c0,0.3,0,0.5,0,0.7c-1,6.6-3.9,15.8-12.2,16.7C261.6,596.5,255.8,594.6,254.9,586"/>
	<path class="st0" d="M292.8,577.1c-1.7-14.9,6.4-24.6,16.9-27.2l-2.4-22c-0.3-2.8-1.3-2.9-1.4-3.6c-0.1-0.7,1.6-1.3,3-1.4
		c3.2-0.4,5.5,1.4,5.7,3.7l5.8,52.3c0.2,2.1,1.5,4.4,3.8,4.1c3.9-0.4,5-6.9,5.4-11.2c0.2-2.1,1-3.1,2-3.2c1.6-0.2,3.6,1.8,3.9,3.6
		c0,0.1,0,0.3,0,0.7c-0.9,6.6-3.9,15.8-12.2,16.7c-3.3,0.4-6.1-0.9-7.8-3c-1.9,2.4-4.5,4.4-8.2,4.8
		C299.5,592.3,294,587.4,292.8,577.1 M313.1,580.4l-2.7-24.1c-6.2,1.9-11.5,7.1-10.2,19.3c0.8,7,4.2,9.6,7.6,9.2
		C310.4,584.6,312.1,582.7,313.1,580.4"/>
	<path class="st0" d="M338.5,575.3c1.7,3.2,4.7,5.6,9.7,5c7.6-0.8,10-7.5,10.5-13.6c0.4-4.5,6.1-3.1,6.1,0.3c0,6-2.6,18.2-16.9,19.8
		c-8.9,1-18-5.2-19.4-17.4c-1.4-12.4,5-22.4,12.5-23.3c5.5-0.6,9.2,3,9.9,8.9C351.6,562.3,347.6,571.5,338.5,575.3 M336.7,570.1
		c4.6-2.8,7.2-8.2,6.5-14c-0.2-2.1-1.2-3.3-2.4-3.2c-4.8,0.5-5,11.4-4.4,15.5C336.5,568.9,336.7,569.5,336.7,570.1"/>
	<path class="st0" d="M69.7,671.9c-1.9,4.3-4.8,7.6-9.1,8c-6.5,0.6-10.9-4.5-11.7-13c-1-10.3,1.4-22.3,1.4-22.3
		c0.5-1.7-0.4-3.6,4.8-4.1c4.8-0.5,2.3,3.7,2.1,5.2c-1,7.4-1.7,11.8-0.9,20c0.5,5.3,2.5,7.9,5.3,7.7c3.9-0.4,6.2-7,6.7-14l-1.5-15.7
		c-0.3-2.8-1.3-2.9-1.3-3.6c-0.1-0.7,1.7-1.2,3-1.4c3.2-0.3,5.5,1.4,5.7,3.8l2.4,24.8c0.1,0.9,0.4,4.5,3,4.2c3.9-0.4,5-6.8,5.5-11.2
		c0.2-2.1,1.1-3.1,2.1-3.2c1.6-0.2,3.6,1.8,3.8,3.7c0,0.1,0,0.3,0,0.7c-1.1,6.6-4.1,15.8-12.5,16.6C74,678.5,70.7,675.8,69.7,671.9"
		/>
	<path class="st0" d="M131.3,672.9c-5.2,0.5-8.6-3.4-9.1-8.4l-1.9-19.8c-0.3-3-0.7-5.5-2.4-5.4c-2.6,0.3-7.4,9.2-7.2,17l1.4,14.2
		c0.2,1.9,0.5,4.2-2.3,4.5c-2,0.2-4.7-0.2-5.1-3.8l-2.4-24.7c-0.3-3-0.7-5.5-2.4-5.4c-2.6,0.3-7.4,9.2-7.2,17l1.4,14.2
		c0.2,1.9,0.5,4.2-2.3,4.5c-2,0.2-4.7-0.2-5.1-3.8l-3-30.9c-0.2-1.9-0.6-2.4-0.7-3.1c-0.1-1,1-1.8,2.4-1.9c3.2-0.3,5.5,1.4,5.7,3.8
		l0.4,4.1c2-5.5,5-9.9,9.4-10.4c5.9-0.6,8,4,8.6,8.4c1.9-5.4,5-9.7,9.3-10.2c6.3-0.6,8.3,4.6,8.8,9.1l2,20.2c0.1,0.9,0.4,4.5,3,4.2
		c3.9-0.4,5-6.8,5.5-11.2c0.2-2.1,1.1-3.1,2.1-3.2c1.6-0.2,3.6,1.8,3.8,3.7c0,0.1,0,0.3,0,0.7C142.7,662.9,139.7,672.1,131.3,672.9"
		/>
	<path class="st0" d="M159.6,651.9c0.6-4.4,2.1-10.1,3.3-15.5c-1.1-1.4-1.8-2.8-2-4.4c-0.3-3.3,4.9-8.3,7.5-8.5
		c2.3-0.2,3.7,1.4,3.9,4c0.3,2.8-1.7,6.3-1.7,6.9c5.4,7.6,11.7,10.6,12.6,19.8c0.1,1.2,0,2.5-0.1,3.6c4.5-1.4,6.5-4.6,7.3-7.8
		c0.5-1.9,1.1-2.8,2-2.9c1.7-0.2,3.8,2.2,3.9,3.6c0.2,2-1.7,5.9-3.8,7.9c-2.8,2.7-6.6,5-12.6,6c-2.1,2.3-5.2,4.1-9.2,4.4
		c-4.1,0.4-9-1.4-11.1-3c-5.2-4.1-3.1-9.5-1-9.8c2-0.2,11.4,4.6,16.3,4.1c0.9-1.4,1.8-3.7,1.6-6.2c-0.6-6.1-4.6-9.9-8.4-13.1
		c-1.2,4-1.8,7.4-2.7,12.2C164.8,657.5,159.2,655.3,159.6,651.9"/>
	<path class="st0" d="M232.3,646.9c-0.7,5.4-4.2,10.2-10.9,10.8c-1.8,0.2-3.3,0.1-4.8-0.2c-2,4.4-5.5,7.6-11,8.2
		c-9.9,1-15.1-7-16-16.7c-1.4-14.3,5.5-23.8,7.7-24c2.5-0.2,5,4.7,2.6,6.6c-1.3,2.5-3.9,6.4-3,16c0.8,8.2,4.4,12,8.2,11.6
		c2.7-0.3,4.3-1.9,5.4-4.3c-5-3.5-8-9.6-8.7-16.7c-0.6-6.1,1.5-11.7,6.8-12.2c4.6-0.4,9,6.1,9.9,15.6c0.4,3.6,0.3,7.3-0.3,10.7
		c0.7,0.1,1.3,0.1,2,0c4.2-0.4,6.1-3.8,6.3-7.7C226.6,642.3,233,641.3,232.3,646.9 M211.8,648.4c0-1.6,0-3.1-0.1-4.5
		c-0.6-6.6-1.4-11.5-3.5-11.3c-1.1,0.1-1.5,1.7-1.2,4.7C207.4,641.7,209.2,645.7,211.8,648.4"/>
	<path class="st0" d="M238.4,651.2c-0.6-6.2,0.5-13.3,2.8-22l-7.4,0.7l-1.1,0.1c0.3,3.8,0.5,12.4-0.7,18.2c-0.9,4.2-6.3,1.2-5.7-2.2
		c0.7-4,0.3-12.1-0.1-17.1c-2.6-1.1-4.5-3-4.8-5.8c-0.3-2.7,1.9-4.7,4.4-5c2.3-0.2,5.2,0.7,6.6,4.6c3.3,0.1,4.2,0,5.2-0.1l5.1-0.5
		c1.2-0.1,5.4,2.7,5.2,5c0.1,1.2-3.1,13.1-2.2,22.9c0.3,2.7,1.8,5.1,4.4,4.9c4.5-0.4,5.5-6.8,6-11.2c0.2-2.1,1.1-3.1,2.1-3.2
		c1.6-0.2,3.6,1.8,3.8,3.7c0,0.3-0.1,0.5,0,0.7c-1.1,6.6-4.1,15.8-12.5,16.6C245,661.8,239.3,659.8,238.4,651.2"/>
	<path class="st0" d="M268.4,648.3c-0.6-6.2,0.5-13.3,2.8-22l-7.4,0.7l-1.1,0.1c0.3,3.8,0.5,12.4-0.7,18.2c-0.9,4.2-6.3,1.2-5.7-2.2
		c0.7-4,0.3-12.1-0.1-17.1c-2.6-1.1-4.5-3-4.8-5.8c-0.3-2.7,1.9-4.7,4.4-5c2.3-0.2,5.2,0.7,6.7,4.6c3.3,0.1,4.2,0,5.2-0.1l5.1-0.5
		c1.2-0.1,5.4,2.7,5.2,5c0.1,1.2-3.1,13.1-2.2,22.9c0.3,2.7,1.8,5.1,4.4,4.9c4.5-0.4,5.5-6.8,6-11.2c0.2-2.1,1.1-3.1,2.1-3.2
		c1.6-0.2,3.6,1.8,3.8,3.7c0,0.3-0.1,0.5,0,0.7c-1.1,6.6-4.1,15.8-12.5,16.6C274.9,658.8,269.2,656.8,268.4,648.3"/>
	<path class="st0" d="M282.1,602c-0.3-3.4,2.1-6.2,5.3-6.5c3.4-0.3,6.2,2,6.5,5.4c0.3,3.2-2,6.2-5.4,6.5
		C285.3,607.7,282.4,605.2,282.1,602 M294.5,645.9c0.1,0.9,0.4,4.5,3,4.2c3.9-0.4,5-6.8,5.5-11.2c0.6-6.1,6.3-2,5.8,1.2
		c-1.1,6.6-4.1,15.8-12.5,16.6c-5.2,0.5-8.6-3.4-9.1-8.4l-2.5-26c-0.2-1.9-0.6-2.4-0.7-3.1c-0.1-1,1-1.8,2.4-1.9
		c3.2-0.3,5.5,1.4,5.7,3.8L294.5,645.9z"/>
	<path class="st0" d="M303.2,637.9c0.6-4.4,2.1-10.1,3.3-15.5c-1.1-1.4-1.8-2.8-2-4.4c-0.3-3.3,4.9-8.3,7.5-8.5
		c2.3-0.2,3.7,1.4,3.9,4c0.3,2.8-1.7,6.3-1.7,6.9c5.4,7.6,11.7,10.6,12.6,19.8c0.1,1.2,0,2.5-0.1,3.6c4.5-1.4,6.5-4.6,7.3-7.8
		c0.5-1.9,1.1-2.8,2-2.9c1.7-0.2,3.8,2.2,3.9,3.6c0.2,1.9-1.7,5.9-3.8,7.9c-2.8,2.7-6.6,5-12.6,6c-2.1,2.3-5.2,4.1-9.2,4.4
		c-4.1,0.4-9-1.4-11.1-3c-5.2-4.1-3.1-9.5-1-9.8c2-0.2,11.4,4.6,16.3,4.1c0.9-1.4,1.8-3.7,1.6-6.2c-0.6-6.1-4.6-9.9-8.4-13.1
		c-1.2,4-1.8,7.4-2.6,12.2C308.4,643.5,302.7,641.3,303.2,637.9"/>
	<path class="st0" d="M375.9,632.8c-0.7,5.4-4.2,10.2-10.9,10.8c-1.8,0.2-3.3,0.1-4.8-0.2c-2,4.4-5.5,7.6-11,8.2
		c-9.9,1-15.1-7-16-16.7c-1.4-14.3,5.6-23.8,7.7-24c2.5-0.3,5,4.7,2.6,6.6c-1.3,2.5-3.9,6.4-3,16c0.8,8.2,4.4,12,8.2,11.6
		c2.7-0.3,4.3-1.9,5.4-4.3c-5-3.5-8-9.7-8.7-16.7c-0.6-6.1,1.5-11.7,6.8-12.2c4.6-0.4,9,6.1,9.9,15.6c0.4,3.6,0.3,7.3-0.3,10.7
		c0.7,0.1,1.3,0.1,2,0c4.2-0.4,6.1-3.8,6.3-7.7C370.2,628.2,376.6,627.2,375.9,632.8 M355.3,634.3c0-1.6,0-3.1-0.1-4.5
		c-0.6-6.6-1.4-11.5-3.5-11.3c-1.1,0.1-1.5,1.7-1.2,4.7C350.9,627.7,352.8,631.6,355.3,634.3"/>
	<path class="st0" d="M383.8,630.4c-0.2-1.6-0.4-3.7-0.4-5c0-2.2,0.5-3.3,1.7-4.7c3-3.2,10.4-10.6,9-24.2
		c-1.2-12.4-7.7-13.1-10.6-12.8c-4.6,0.4-9,4-8.1,12.9c0.4,4.2,2.4,9.4,4.4,9.2c0.4,0,0.7-0.3,0.9-0.3c0.6-0.1,0.9,0.3,1,0.8
		c0.2,1.6-1.9,4.6-5,4.9c-4.2,0.4-7.9-7.5-8.6-13.9c-1.3-13.2,6.4-19.8,14.8-20.7c10.5-1,17.5,7,18.7,19.2
		c1.3,13.7-4.7,21.4-9.8,27.5c-1,1.2-0.9,2.6-0.8,3.9l0.4,3.8C391.8,635.4,384.2,634.2,383.8,630.4 M393.4,642
		c0.2,2.4-1.6,4.8-4.2,5c-2.6,0.3-5-1.7-5.2-4.1c-0.3-2.6,1.7-4.9,4.3-5.1C390.9,637.5,393.2,639.4,393.4,642"/>
	<path class="st0" d="M221.4,799.2c-0.6,0-1.1-0.1-1.6-0.4c-0.6-0.4-15.2-9.4-30.1-22.3c-20.4-17.7-30.7-33.3-30.7-46.6
		c0.1-18.3,14.7-38.8,35.6-38.8c9.3,0,16.3,3.9,25.2,11.1c4.5-3.5,9.9-6.5,15.5-8.4c4.7-1.8,9-2.7,12.8-2.7
		c20.9,0,35.5,20.4,35.6,38.8c0.1,13.2-10.3,28.9-30.7,46.6c-14.9,12.9-29.5,21.9-30.1,22.3C222.5,799.1,221.9,799.2,221.4,799.2
		 M194.6,697.2c-13.9,0-29.5,13.4-29.5,32.7c0,11.2,9.8,25.7,28.5,41.9c11.7,10.2,23.6,18.1,27.8,20.8c4.2-2.7,16.1-10.6,27.8-20.8
		c18.7-16.2,28.6-30.7,28.5-41.9c-0.1-19.3-15.6-32.7-29.6-32.7c-3.1,0-6.8,0.8-10.7,2.3c0,0-0.1,0-0.1,0c-4.6,1.6-9,3.9-12.7,6.7
		c2.8,2.8,9.2,10.1,6.6,17.6c-1.7,4.8-5.9,7.8-11,7.8c-3.7,0-7.3-1.6-9.6-4.3c-2-2.4-2.7-5.5-2.1-8.6c0.8-4.2,3.1-8.4,6.8-12.2
		C206.6,699.5,201.3,697.2,194.6,697.2 M220,710.3c-3,3.1-4.9,6.4-5.5,9.5c-0.3,1.4,0,2.6,0.9,3.6c1.1,1.3,3,2.1,4.9,2.1
		c1.5,0,4.1-0.5,5.2-3.7C226.8,718.1,222.6,712.8,220,710.3"/>
	<path class="st0" d="M385.2,545.6c-0.3,0-0.6,0-0.8-0.1c-1.9-0.5-3-2.3-2.5-4.2c8.8-35-11.6-51.2-33.3-68.5
		c-13-10.4-26.4-21-32.6-35.9c-42.2,13.3-95,13-142.2,12.8c-48.3-0.2-90.1-0.5-101,14.6c-3.3,4.5-3.6,10.5-1,18.4
		c0.6,1.8-0.4,3.8-2.2,4.4c-1.8,0.6-3.8-0.4-4.4-2.2c-3.3-10-2.6-18.3,2-24.6c13-17.9,54.3-17.7,106.7-17.5
		c46.6,0.2,98.8,0.5,139.9-12.4c-0.9-3.5-1.4-7.3-1.4-11.3c0-7.9,4.2-13.2,11.4-14.2c7.3-1,17,3.3,19,10.5c1,3.8,0.6,11-13.4,16.8
		c-2.2,0.9-4.5,1.8-6.8,2.6c5.6,13.1,17.7,22.7,30.3,32.7c21.4,17,45.6,36.3,35.7,75.6C388.2,544.6,386.7,545.6,385.2,545.6
		 M326.1,411.6c-0.5,0-0.9,0-1.4,0.1c-3.7,0.5-5.4,2.9-5.4,7.3c0,3.2,0.4,6.3,1.1,9.1c2.1-0.8,4.3-1.6,6.3-2.4
		c6.5-2.7,10.1-6,9.4-8.6C335.4,414.4,330.7,411.6,326.1,411.6"/>
	<path class="st0" d="M65.1,753.7c-3,0-6-0.8-8.2-2.6c-3.8-2.9-8.3-10.4,3.1-27.2c-42-44.4-36.6-73.5-31.5-101.6
		c2.5-13.7,4.9-26.6,1.7-41.1c-0.4-1.6,0.7-3.3,2.3-3.6c1.6-0.4,3.3,0.7,3.6,2.3c3.4,15.7,0.8,29.8-1.7,43.5
		c-2.6,14.3-5.3,29-1.1,45.8c4,15.9,13.9,32.3,30.3,49.8c35.5-44.3,107.5-32.3,131.6-28.2c1,0.2,2,0.3,2.8,0.5
		c1.7,0.3,2.8,1.8,2.5,3.5c-0.3,1.7-1.8,2.8-3.5,2.5c-0.9-0.1-1.8-0.3-2.9-0.5c-23.3-3.9-93.2-15.6-126.4,26.7c1.9,2,4,4,6.1,6
		c10.1,9.6,5.2,17,3.5,19C74.4,751.8,69.6,753.7,65.1,753.7 M64.2,728.4c-5.6,8.6-7,15.4-3.7,17.9c3,2.3,9.4,1.3,12.2-1.9
		c3-3.5,0-7.7-3.1-10.6C67.8,732,66,730.2,64.2,728.4"/>
	<path class="st0" d="M301,673.9c0.9-2.3,2.3-4.2,4.1-4.5c0.9-0.1,2.2,0.3,2.5,2.3l2.8,17.8c0.4,2.3,1.8,1.9,1.9,2.5
		c0.1,0.5-0.5,1.1-1.4,1.3c-0.9,0.1-2.4-0.4-2.8-2.9l-2.8-18.2c-0.1-0.4-0.2-0.4-0.3-0.4c-0.9,0.1-3.3,5.4-2.9,8l1.8,11.8
		c0.1,0.5-0.3,0.8-0.7,0.8c-0.7,0.1-1.6-0.2-1.7-0.6l-3-19c-2.7,0.8-4.6,3.2-4,7c0.4,2.4,1.8,3.8,2.2,3.8c0.2,0,0.3-0.2,0.5-0.2
		c0.2,0,0.3,0.1,0.3,0.3c0.2,1-0.5,2.2-1.3,2.3c-1,0.2-3.5-2.2-4.1-5.8c-1-6.5,3.6-9.4,7.2-10c0.6-0.1,1.3,0.4,1.4,1.1L301,673.9z"
		/>
	<path class="st0" d="M325.6,683.9c-0.1,1.7-1.1,3.3-3.2,3.6c-0.6,0.1-1,0.1-1.5,0c-0.6,1.4-1.6,2.5-3.3,2.8c-3.1,0.5-4.9-1.9-5.4-5
		c-0.7-4.5,1.3-7.6,2-7.7c0.8-0.1,1.7,1.4,0.9,2c-0.4,0.8-1.1,2.1-0.6,5.1c0.4,2.6,1.6,3.7,2.8,3.5c0.9-0.1,1.3-0.7,1.6-1.4
		c-1.6-1-2.7-2.9-3.1-5.1c-0.3-1.9,0.3-3.7,1.9-4c1.4-0.2,2.9,1.8,3.4,4.7c0.2,1.1,0.2,2.3,0.1,3.4c0.2,0,0.4,0,0.6,0
		c1.3-0.2,1.9-1.3,1.9-2.5C323.7,682.6,325.7,682.1,325.6,683.9 M315.5,675.3c-0.2,0.4-0.6,0.7-0.9,0.7c-0.8,0.1-1.2-0.2-1.3-0.5
		c0-0.2,0.1-0.3,0.2-0.5l2.3-3.6c0-0.3,0.5-0.7,0.9-0.7c0.6-0.1,1.3,0.2,1.4,0.7c0,0.3-0.1,0.5-0.3,0.7L315.5,675.3z M319.1,684.7
		c0-0.5-0.1-1-0.1-1.4c-0.3-2.1-0.7-3.6-1.3-3.5c-0.3,0.1-0.4,0.6-0.3,1.5C317.6,682.7,318.3,683.9,319.1,684.7"/>
	<path class="st0" d="M323.7,683.5c0.1-1.4,0.5-3.2,0.8-4.9c-0.4-0.4-0.6-0.8-0.7-1.4c-0.2-1,1.4-2.7,2.2-2.8
		c0.7-0.1,1.2,0.4,1.3,1.2c0.1,0.9-0.4,2-0.4,2.2c1.8,2.3,3.9,3.1,4.3,6c0.1,0.4,0.1,0.8,0,1.1c1.4-0.5,2-1.6,2.2-2.6
		c0.1-0.6,0.3-0.9,0.6-0.9c0.5-0.1,1.2,0.6,1.3,1.1c0.1,0.6-0.4,1.9-1,2.6c-0.8,0.9-2,1.7-3.9,2.1c-0.6,0.8-1.6,1.4-2.8,1.6
		c-1.3,0.2-2.9-0.3-3.6-0.8c-1.7-1.2-1.2-3-0.5-3.1c0.6-0.1,3.7,1.2,5.2,1c0.3-0.4,0.5-1.2,0.4-2c-0.3-1.9-1.6-3-2.9-4
		c-0.3,1.3-0.4,2.4-0.6,3.9C325.4,685.2,323.6,684.6,323.7,683.5"/>
	<path class="st0" d="M302.9,710c0.1-1.4,0.5-3.2,0.8-4.9c-0.4-0.4-0.6-0.8-0.7-1.4c-0.2-1,1.4-2.7,2.2-2.8c0.7-0.1,1.2,0.4,1.3,1.2
		c0.1,0.9-0.4,2-0.4,2.2c1.8,2.3,3.9,3.1,4.3,6c0.1,0.4,0.1,0.8,0,1.1c1.4-0.5,2-1.6,2.2-2.6c0.1-0.6,0.3-0.9,0.6-0.9
		c0.5-0.1,1.2,0.6,1.3,1.1c0.1,0.6-0.4,1.9-1,2.6c-0.8,0.9-2,1.7-3.9,2.1c-0.6,0.8-1.6,1.4-2.8,1.6c-1.3,0.2-2.9-0.3-3.6-0.8
		c-1.7-1.2-1.2-3-0.5-3.1c0.6-0.1,3.7,1.2,5.2,1c0.3-0.4,0.5-1.2,0.4-2c-0.3-1.9-1.6-3-2.9-4c-0.3,1.3-0.4,2.4-0.6,3.9
		C304.6,711.6,302.8,711,302.9,710"/>
	<path class="st0" d="M323.4,707.1c0-0.7,0.3-1,0.6-1c0.5-0.1,1.2,0.5,1.3,1.1c0,0,0,0.1,0,0.2c-0.2,2.1-1,5-3.6,5.5
		c-1.1,0.2-2-0.2-2.5-0.9c-0.5,0.8-1.3,1.5-2.4,1.7c-2.4,0.4-4-1.5-4.4-4c-0.8-5.1,2.3-8.8,6-9.4c0.8-0.1,1.5,0.3,1.6,1.1
		c0.1,0.5,0,0.7-0.3,0.8c-0.3,0-0.6,0-0.9,0.1c-2.3,0.4-4.7,2.8-4,7.2c0.2,1.6,1.1,2.4,2.1,2.2c0.8-0.1,1.3-0.9,1.5-1.9l-0.7-4.7
		c-0.1-0.6-0.2-0.7-0.3-1c0-0.3,0.3-0.6,0.7-0.6c1-0.2,1.7,0.4,1.9,1.1l0.8,5c0.1,0.7,0.5,1.4,1.3,1.2
		C323.1,710.5,323.4,708.5,323.4,707.1"/>
	<path class="st0" d="M328.4,699.2c1.6-0.3,3.5,1.1,4,4.5c0.2,1.2,0.2,2.4,0.1,3.6c0.2,0,0.4,0,0.7,0c1.3-0.2,1.9-1.3,1.9-2.5
		c0-0.7,2-1.2,1.9,0.6c-0.1,1.7-1.1,3.3-3.2,3.6c-0.6,0.1-1.1,0.1-1.6,0c-0.6,1.4-1.6,2.5-3.4,2.8c-2.8,0.4-4.6-1.4-5.1-4.4
		l-2.3-14.6c-0.1-0.9-0.5-0.9-0.5-1.1c0-0.2,0.5-0.4,0.9-0.5c1-0.2,1.7,0.4,1.9,1.1l2.2,14.3c0.3,2,1.3,3.4,2.7,3.2
		c0.8-0.1,1.2-0.6,1.5-1.3c-1.9-1-3.3-3-3.7-5.1C326,700.7,327,699.5,328.4,699.2 M330.3,706.4c0-0.7-0.1-1.5-0.2-2
		c-0.3-2-1-3.1-1.6-3c-0.4,0.1-0.5,0.7-0.3,1.5C328.5,704.3,329.3,705.6,330.3,706.4"/>
	<path class="st0" d="M337.8,706.3c0.6,1,1.5,1.7,3.1,1.5c2.4-0.4,3.1-2.5,3.1-4.4c0.1-1.4,1.9-1.1,1.9,0c0.1,1.9-0.6,5.8-5.1,6.5
		c-2.8,0.4-5.8-1.4-6.4-5.2c-0.6-3.9,1.3-7.2,3.6-7.5c1.7-0.3,2.9,0.8,3.2,2.7C341.8,702,340.7,704.9,337.8,706.3 M337.2,704.7
		c1.4-0.9,2.1-2.7,1.9-4.5c-0.1-0.7-0.4-1-0.8-1c-1.5,0.2-1.4,3.7-1.2,4.9C337.1,704.3,337.2,704.5,337.2,704.7"/>
	<path class="st0" d="M358.9,707c-1.6,0.3-2.8-0.9-3-2.5l-1-6.2c-0.1-0.9-0.3-1.7-0.9-1.7c-0.8,0.1-2.2,3-2,5.5l0.7,4.5
		c0.1,0.6,0.2,1.3-0.7,1.4c-0.6,0.1-1.5,0-1.7-1.1l-1.2-7.7c-0.1-0.9-0.3-1.7-0.9-1.7c-0.8,0.1-2.2,3-2,5.5l0.7,4.5
		c0.1,0.6,0.2,1.3-0.7,1.4c-0.6,0.1-1.5,0-1.7-1.1l-1.5-9.7c-0.1-0.6-0.2-0.7-0.3-1c0-0.3,0.3-0.6,0.7-0.6c1-0.2,1.7,0.4,1.9,1.1
		l0.2,1.3c0.5-1.8,1.4-3.2,2.8-3.4c1.8-0.3,2.6,1.1,2.9,2.5c0.5-1.7,1.4-3.2,2.8-3.4c2-0.3,2.7,1.3,2.9,2.7l1,6.3
		c0,0.3,0.2,1.4,1,1.3c1.2-0.2,1.5-2.2,1.5-3.6c0-0.7,0.3-1,0.6-1c0.5-0.1,1.2,0.5,1.3,1.1c0,0,0,0.1,0,0.2
		C362.3,703.7,361.5,706.6,358.9,707"/>
	<path class="st0" d="M373.8,699.5c-0.1,1.7-1.1,3.3-3.2,3.6c-0.6,0.1-1,0.1-1.5,0c-0.6,1.4-1.6,2.5-3.3,2.8c-3.1,0.5-4.9-1.9-5.4-5
		c-0.7-4.5,1.3-7.6,2-7.7c0.8-0.1,1.7,1.4,0.9,2c-0.4,0.8-1.1,2.1-0.6,5.1c0.4,2.6,1.6,3.7,2.8,3.5c0.9-0.1,1.3-0.7,1.6-1.4
		c-1.6-1-2.7-2.9-3.1-5.1c-0.3-1.9,0.3-3.7,1.9-4c1.4-0.2,2.9,1.8,3.4,4.7c0.2,1.1,0.2,2.3,0.1,3.4c0.2,0,0.4,0,0.6,0
		c1.3-0.2,1.9-1.3,1.9-2.5C371.9,698.2,373.9,697.8,373.8,699.5 M367.3,700.4c0-0.5-0.1-1-0.1-1.4c-0.3-2.1-0.7-3.6-1.3-3.5
		c-0.3,0.1-0.4,0.6-0.3,1.5C365.8,698.4,366.5,699.6,367.3,700.4"/>
	<path class="st0" d="M371.9,699.2c0.1-1.4,0.5-3.2,0.8-4.9c-0.4-0.4-0.6-0.8-0.7-1.4c-0.2-1,1.4-2.7,2.2-2.8
		c0.7-0.1,1.2,0.4,1.3,1.2c0.1,0.9-0.4,2-0.4,2.2c1.8,2.3,3.9,3.1,4.3,6c0.1,0.4,0.1,0.8,0,1.1c1.4-0.5,2-1.6,2.2-2.6
		c0.1-0.6,0.3-0.9,0.6-0.9c0.5-0.1,1.2,0.6,1.3,1.1c0.1,0.6-0.4,1.9-1,2.6c-0.8,0.9-2,1.7-3.9,2.1c-0.6,0.8-1.6,1.4-2.8,1.6
		c-1.3,0.2-2.9-0.3-3.6-0.8c-1.7-1.2-1.1-3-0.5-3.1c0.6-0.1,3.7,1.2,5.2,1c0.3-0.4,0.5-1.2,0.4-2c-0.3-1.9-1.6-3-2.9-4
		c-0.3,1.3-0.4,2.4-0.6,3.9C373.6,700.9,371.8,700.3,371.9,699.2"/>
	<path class="st0" d="M347.6,666.4c-3.9,0.4-6,4.6-5.6,7.8c0.6,5.8,13.2,11.8,13.2,11.8s10.9-8.5,10.2-14.4
		c-0.4-3.2-3.3-6.8-7.2-6.3c-1.8,0.2-3.9,1.6-5,2.9C351.8,667.1,349.4,666.2,347.6,666.4"/>
</g>
<g>
	<path class="st0" d="M533.8,166.7c-0.3-2.2,1.7-5.8,3.1-6c0.5-0.1,0.8,0.2,1.1,0.7c0.3,0.3,2.2,2.1,5.8,1.7
		c3.9-0.5,6.4-3.3,5.9-7.5c-1.3-11.4-24.7-9.1-26.9-28.6c-1.5-12.6,10.7-27.6,23.7-29.1c7.4-0.9,12.6,3.5,13.5,10.9
		c1.2,10.6-9.9,22-15.8,22.7c-3.3,0.4-5.8-2.9-6-4.9c-0.2-1.6,0.8-0.8,2.4-1c5.2-0.6,12.8-9.6,12.1-15.9c-0.4-3.2-2-5.1-5.9-4.6
		c-7.1,0.8-17.8,10.6-16.6,21c1.7,14.8,25.1,12.4,27,28.3c0.9,7.7-4.6,14.8-12.6,15.8C536.6,171.2,533.9,167.3,533.8,166.7z"/>
	<path class="st0" d="M572.7,153.9c1.7,3.1,4.6,5.5,9.6,4.9c7.4-0.9,9.8-7.4,10.3-13.4c0.4-4.4,5.9-3.1,5.9,0.3
		c0,5.9-2.5,17.9-16.5,19.5c-8.7,1-17.7-5-19.1-16.9c-1.4-12.1,4.8-22,12.2-22.9c5.3-0.6,9,2.9,9.7,8.6
		C585.5,141.1,581.6,150,572.7,153.9z M570.9,148.8c4.5-2.7,7-8.1,6.3-13.8c-0.2-2.1-1.2-3.3-2.4-3.1c-4.7,0.5-4.9,11.2-4.2,15.2
		C570.7,147.6,570.9,148.2,570.9,148.8z"/>
	<path class="st0" d="M612.3,143.4c-1.3-11,3.9-22.8,13-23.9c6.6-0.8,9.8,5,10.2,8.3c0.4,3.6-5.9,6.3-5.8,2.9
		c-0.7-1.6-1.3-5.1-4.5-4.7c-3.5,0.4-6.1,7.9-5.1,16.5c0.9,7.5,5.5,11.3,11.1,10.6c7.4-0.9,10.2-7.5,10.6-13.4
		c0.4-4.4,5.9-3.1,5.9,0.3c0,5.9-2.9,17.9-16.9,19.6C622.4,160.5,613.6,155.1,612.3,143.4z"/>
	<path class="st0" d="M682.5,137.7c-0.5,5.3-4,10-10.5,10.8c-1.7,0.2-3.3,0.2-4.8-0.1c-1.9,4.4-5.2,7.6-10.7,8.2
		c-9.6,1.1-14.9-6.6-16-16.1c-1.6-14,5-23.4,7.1-23.7c2.5-0.3,5,4.6,2.7,6.5c-1.3,2.5-3.7,6.3-2.6,15.8c0.9,8,4.5,11.7,8.3,11.2
		c2.7-0.3,4.2-1.9,5.2-4.3c-4.9-3.3-8-9.3-8.8-16.2c-0.7-6,1.3-11.5,6.4-12.1c4.5-0.5,8.9,5.8,10,15.1c0.4,3.5,0.4,7.1-0.1,10.5
		c0.7,0.1,1.3,0,1.9,0c4.1-0.5,5.9-3.9,6.1-7.7C676.9,133.3,683.2,132.2,682.5,137.7z M662.4,139.5c0-1.5-0.1-3-0.2-4.4
		c-0.7-6.5-1.6-11.2-3.6-11c-1,0.1-1.4,1.7-1.1,4.7C658,133.1,659.9,136.9,662.4,139.5z"/>
	<path class="st0" d="M674.9,119.5c-0.2-1.8-0.7-2.3-0.7-3c-0.1-1,1-1.8,2.3-1.9c3.2-0.4,5.4,1.3,5.6,3.6l0.5,4.3
		c2-5.6,4.9-10.1,9.6-10.7c6.4-0.7,8.5,4.3,9,8.7l2.3,19.8c0.1,0.9,0.5,4.4,3,4.1c3.8-0.4,4.8-6.7,5.2-11c0.2-2,1-3,2-3.1
		c1.5-0.2,3.6,1.7,3.8,3.5c0,0.1,0,0.3,0,0.7c-0.9,6.5-3.7,15.5-11.9,16.5c-5.1,0.6-8.5-3.2-9.1-8l-2.2-19.4c-0.3-3-0.8-5.4-2.6-5.2
		c-2.8,0.3-7.7,9.2-7.5,16.8l1.6,13.9c0.2,1.8,0.6,4.1-2.2,4.4c-1.9,0.2-4.7-0.1-5.1-3.7L674.9,119.5z"/>
	<path class="st0" d="M751.9,129.7c-0.5,5.3-4,10-10.5,10.8c-1.7,0.2-3.3,0.2-4.8-0.1c-1.9,4.4-5.2,7.6-10.7,8.2
		c-9.6,1.1-14.9-6.6-16-16.1c-1.6-14,5-23.4,7.1-23.7c2.5-0.3,5,4.6,2.7,6.5c-1.3,2.5-3.7,6.3-2.6,15.8c0.9,8,4.5,11.7,8.3,11.2
		c2.7-0.3,4.2-1.9,5.2-4.3c-4.9-3.3-8-9.3-8.8-16.2c-0.7-6,1.3-11.5,6.4-12.1c4.5-0.5,8.9,5.8,10,15.1c0.4,3.5,0.4,7.1-0.1,10.5
		c0.7,0.1,1.3,0,1.9,0c4.1-0.5,5.9-3.9,6.1-7.7C746.3,125.3,752.6,124.2,751.9,129.7z M731.8,131.5c0-1.6-0.1-3-0.2-4.4
		c-0.7-6.5-1.6-11.2-3.6-11c-1.1,0.1-1.4,1.7-1.1,4.7C727.4,125.1,729.3,128.9,731.8,131.5z"/>
	<path class="st0" d="M745,128.1c-1.3-11,3.9-22.8,13-23.9c6.6-0.8,9.8,5,10.2,8.3c0.4,3.6-5.9,6.3-5.8,2.9
		c-0.7-1.6-1.3-5.1-4.5-4.7c-3.5,0.4-6.1,7.9-5.1,16.5c0.9,7.5,5.5,11.3,11.1,10.6c7.4-0.9,10.2-7.5,10.6-13.4
		c0.4-4.4,5.9-3.1,5.9,0.3c0,5.9-2.9,17.9-16.9,19.6C755.1,145.2,746.3,139.8,745,128.1z"/>
	<path class="st0" d="M783.1,129.6c1.7,3.1,4.6,5.5,9.6,4.9c7.4-0.9,9.8-7.4,10.3-13.4c0.4-4.4,5.9-3.1,5.9,0.3
		c0,5.9-2.5,17.9-16.5,19.5c-8.7,1-17.7-5-19.1-16.9c-1.4-12.1,4.8-22,12.2-22.9c5.3-0.6,9,2.9,9.7,8.6
		C795.9,116.8,792,125.7,783.1,129.6z M781.3,124.4c4.5-2.7,7-8.1,6.3-13.8c-0.2-2.1-1.2-3.3-2.4-3.1c-4.7,0.5-4.9,11.2-4.2,15.2
		C781.1,123.3,781.2,123.9,781.3,124.4z"/>
	<path class="st0" d="M528.9,229.3c1.7,3.1,4.6,5.5,9.6,4.9c7.4-0.9,9.8-7.4,10.3-13.4c0.4-4.4,5.9-3.1,5.9,0.3
		c0,5.9-2.5,17.9-16.5,19.5c-8.7,1-17.7-5-19.1-16.9c-1.4-12.1,4.8-22,12.2-22.9c5.3-0.6,9,2.9,9.7,8.6
		C541.7,216.5,537.9,225.5,528.9,229.3z M527.2,224.2c4.5-2.7,7-8.1,6.3-13.8c-0.2-2.1-1.2-3.3-2.4-3.1c-4.7,0.5-4.9,11.2-4.2,15.2
		C526.9,223,527.1,223.6,527.2,224.2z"/>
	<path class="st0" d="M575.5,221.3c-1.1,5.4-4.7,15.5-13.4,16.5c-7.4,0.8-11.8-3.8-12.7-11.3l-5-43.4c-0.8-7.2,2.5-12.7,7.3-13.2
		c8.4-1,9.7,9,10.3,14.4c1.6,14-4.8,34.3-5.9,35.6l0.6,5.5c0.4,3.8,2.3,6.4,5.8,6c4.4-0.5,6.9-6.9,7.3-11.2
		C570.2,214.5,575.9,218.2,575.5,221.3z M554.5,207.4c1.5-4.2,2.1-17.1,1.5-22.3c-0.7-6.3-2.1-9-3.6-8.9c-1.1,0.1-1.2,2.5-1,4
		L554.5,207.4z"/>
	<path class="st0" d="M588.9,199.8c-0.2-1.8-0.7-2.3-0.7-3c-0.1-1,1-1.8,2.3-1.9c3.2-0.4,5.4,1.3,5.6,3.6l3,25.7
		c0.2,1.8,0.7,2.9,2.4,2.7c4.7-0.5,9.3-7.7,8-18.7c-0.9-7.7-3.8-9.4-5.2-10.2c-0.5-0.3-1.4-0.1-1.4-0.7c-0.2-1.7,1.6-4.9,3.4-5.1
		c3.8-0.4,9.5,7.3,10.4,15.5c1.5,12.9-4.4,24.4-15.7,25.7c-6.1,0.7-8.6-3.3-9.2-8.4L588.9,199.8z"/>
	<path class="st0" d="M655.4,210.2c0.2-2,1-3,2-3.1c1.5-0.2,3.6,1.7,3.8,3.5c0,0.1,0,0.3,0,0.7c-0.9,6.5-3.7,15.5-11.9,16.5
		c-3.3,0.4-6.1-0.9-7.8-3.1c-1.7,2.4-4.1,4.4-7.8,4.9c-7.4,0.9-12.1-5-13-13.1c-1.8-15.9,8.1-27,19.8-28.3c2.6-0.3,4.6,1,4.9,3.5
		c0.2,1.6,0,2.2-1,2.3c-0.9,0.1-1.8,0-2.8,0.1c-7.3,0.8-15,8-13.4,21.8c0.6,5,3,7.6,6.3,7.2c2.6-0.3,4-2.8,4.8-5.6l-1.7-14.7
		c-0.2-1.8-0.7-2.3-0.7-3c-0.1-1,1-1.8,2.3-1.9c3.1-0.4,5.4,1.3,5.6,3.6l1.8,15.8c0.2,2.1,1.5,4.3,3.8,4
		C654,220.8,655,214.5,655.4,210.2z"/>
	<path class="st0" d="M682.3,208.9c-1.1,5.4-4.7,15.5-13.4,16.5c-7.4,0.8-11.8-3.8-12.7-11.3l-5-43.4c-0.8-7.2,2.5-12.7,7.3-13.2
		c8.4-1,9.7,9,10.3,14.4c1.6,14-4.8,34.3-5.9,35.6l0.6,5.5c0.4,3.8,2.3,6.4,5.8,6c4.4-0.5,6.9-6.9,7.3-11.2
		C677.1,202.1,682.7,205.8,682.3,208.9z M661.3,195c1.5-4.2,2.1-17.1,1.5-22.3c-0.7-6.3-2.1-9-3.6-8.9c-1.1,0.1-1.2,2.5-1,4
		L661.3,195z"/>
	<path class="st0" d="M717.2,204c-0.5,5.3-4,10-10.5,10.8c-1.7,0.2-3.3,0.2-4.8-0.1c-1.9,4.4-5.2,7.6-10.7,8.2
		c-9.6,1.1-14.9-6.6-16-16.1c-1.6-14,5-23.4,7.1-23.7c2.5-0.3,5,4.6,2.7,6.5c-1.3,2.5-3.7,6.3-2.6,15.8c0.9,8,4.5,11.7,8.3,11.2
		c2.7-0.3,4.2-1.9,5.2-4.3c-4.9-3.3-8-9.3-8.8-16.2c-0.7-6,1.3-11.5,6.4-12.1c4.5-0.5,8.9,5.8,10,15.1c0.4,3.5,0.4,7.1-0.1,10.5
		c0.7,0.1,1.3,0,1.9,0c4.1-0.5,5.9-3.9,6.1-7.7C711.6,199.7,717.9,198.5,717.2,204z M697.1,205.9c0-1.6-0.1-3-0.2-4.4
		c-0.7-6.5-1.6-11.2-3.6-11c-1.1,0.1-1.4,1.7-1.1,4.7C692.7,199.4,694.6,203.3,697.1,205.9z"/>
	<path class="st0" d="M723.3,208.2c-0.7-6.1,0.2-13.1,2.3-21.6l-7.3,0.8l-1.1,0.1c0.3,3.7,0.7,12.1-0.4,17.8
		c-0.8,4.2-6.1,1.3-5.7-2.1c0.6-3.9,0.1-11.9-0.4-16.8c-2.5-1.1-4.5-2.9-4.8-5.6c-0.3-2.7,1.8-4.7,4.3-4.9c2.3-0.3,5.1,0.6,6.6,4.4
		c3.2,0,4.1-0.1,5.1-0.2l5-0.6c1.1-0.1,5.3,2.6,5.2,4.8c0.1,1.1-2.9,12.9-1.8,22.5c0.3,2.7,1.8,5,4.4,4.7c4.4-0.5,5.3-6.8,5.7-11.1
		c0.1-2,1-3,2-3.1c1.5-0.2,3.6,1.7,3.8,3.5c0,0.3,0,0.5,0,0.7c-1,6.5-3.7,15.5-11.9,16.5C729.9,218.4,724.3,216.6,723.3,208.2z"/>
	<path class="st0" d="M760.5,199.3c-1.7-14.6,6.2-24.1,16.4-26.8l-2.5-21.6c-0.3-2.8-1.3-2.8-1.4-3.5c-0.1-0.7,1.6-1.2,2.9-1.4
		c3.1-0.4,5.4,1.3,5.6,3.6l5.9,51.3c0.2,2.1,1.5,4.3,3.8,4c3.8-0.4,4.8-6.7,5.2-11c0.2-2,1-3,2-3.1c1.5-0.2,3.6,1.7,3.8,3.5
		c0,0.1,0,0.3,0,0.7c-0.9,6.5-3.7,15.5-11.9,16.5c-3.2,0.4-6-0.9-7.7-2.9c-1.9,2.3-4.4,4.3-8.1,4.7
		C767.2,214.1,761.7,209.3,760.5,199.3z M780.4,202.4l-2.7-23.6c-6.1,1.9-11.3,7-9.9,18.9c0.8,6.9,4.2,9.4,7.5,9
		C777.8,206.5,779.4,204.7,780.4,202.4z"/>
	<path class="st0" d="M805.3,197.3c1.7,3.1,4.6,5.5,9.6,4.9c7.4-0.9,9.8-7.4,10.3-13.4c0.4-4.4,5.9-3.1,5.9,0.3
		c0,5.9-2.5,17.9-16.5,19.5c-8.7,1-17.7-5-19.1-16.9c-1.4-12.1,4.8-22,12.2-22.9c5.3-0.6,9,2.9,9.7,8.6
		C818.1,184.5,814.2,193.5,805.3,197.3z M803.5,192.2c4.5-2.7,7-8.1,6.3-13.8c-0.2-2.1-1.1-3.3-2.4-3.1c-4.7,0.5-4.9,11.2-4.2,15.2
		C803.3,191.1,803.4,191.7,803.5,192.2z"/>
	<path class="st0" d="M533.9,304.6c-1.8,4.3-4.6,7.5-8.8,8c-6.4,0.7-10.7-4.3-11.7-12.6c-1.2-10.1,1-21.9,1-21.9
		c0.5-1.7-0.4-3.5,4.7-4.1c4.7-0.5,2.4,3.6,2.1,5.1c-0.9,7.3-1.5,11.6-0.5,19.6c0.6,5.2,2.5,7.7,5.3,7.4c3.8-0.4,6-7,6.3-13.8
		l-1.8-15.4c-0.3-2.8-1.3-2.8-1.4-3.5c-0.1-0.7,1.6-1.2,2.9-1.4c3.1-0.4,5.4,1.3,5.6,3.6l2.8,24.2c0.1,0.9,0.5,4.4,3,4.1
		c3.8-0.4,4.8-6.7,5.2-11c0.2-2,1-3,2-3.1c1.5-0.2,3.6,1.7,3.8,3.5c0,0.1,0,0.3,0,0.7c-1,6.5-3.7,15.5-11.9,16.5
		C538.3,310.9,535,308.3,533.9,304.6z"/>
	<path class="st0" d="M547.1,275c-0.2-1.8-0.7-2.3-0.7-3c-0.1-1,1-1.8,2.3-1.9c3.1-0.4,5.4,1.3,5.6,3.6l0.5,4.3
		c2-5.6,4.9-10.1,9.6-10.7c6.4-0.7,8.5,4.3,9,8.7l2.3,19.8c0.1,0.9,0.5,4.4,3,4.1c3.8-0.4,4.8-6.7,5.2-11c0.1-2,1-3,2-3.1
		c1.5-0.2,3.6,1.7,3.8,3.5c0,0.1,0,0.3,0,0.7c-0.9,6.5-3.7,15.5-11.9,16.5c-5.1,0.6-8.5-3.2-9.1-8l-2.2-19.4c-0.3-3-0.8-5.4-2.6-5.2
		c-2.8,0.3-7.7,9.2-7.5,16.8l1.6,13.9c0.2,1.8,0.6,4.1-2.2,4.4c-1.9,0.2-4.7-0.1-5.1-3.7L547.1,275z"/>
	<path class="st0" d="M617,285c0.2-2,1-3,2-3.1c1.5-0.2,3.6,1.7,3.8,3.5c0,0.1,0,0.3,0,0.7c-0.9,6.5-3.7,15.5-11.9,16.5
		c-3.3,0.4-6.1-0.9-7.8-3.1c-1.7,2.4-4.1,4.4-7.8,4.9c-7.4,0.9-12.1-5-13-13.1c-1.8-15.9,8.1-27,19.8-28.3c2.6-0.3,4.6,1,4.9,3.5
		c0.2,1.6,0,2.2-1,2.3c-0.9,0.1-1.8,0-2.8,0.1c-7.3,0.8-15,8-13.4,21.8c0.6,5,3,7.6,6.3,7.2c2.6-0.3,4-2.8,4.8-5.6l-1.7-14.7
		c-0.2-1.8-0.7-2.3-0.7-3c-0.1-1,1-1.8,2.3-1.9c3.1-0.4,5.4,1.3,5.6,3.6L608,292c0.2,2.1,1.5,4.3,3.8,4
		C615.6,295.6,616.6,289.3,617,285z"/>
	<path class="st0" d="M638.2,281.5c0.5-4.3,1.8-10,3-15.2c-1.1-1.3-1.9-2.7-2-4.3c-0.4-3.2,4.7-8.2,7.2-8.5c2.3-0.3,3.6,1.3,3.9,3.9
		c0.3,2.8-1.5,6.2-1.5,6.8c5.4,7.4,11.6,10.2,12.7,19.2c0.1,1.1,0.1,2.4-0.1,3.5c4.4-1.5,6.3-4.6,7-7.8c0.5-1.9,1-2.7,1.9-2.8
		c1.6-0.2,3.7,2.1,3.9,3.4c0.2,1.9-1.6,5.8-3.5,7.9c-2.7,2.7-6.4,5-12.3,6.1c-2.1,2.3-5,4.1-9,4.5c-4,0.5-8.8-1.2-11-2.8
		c-5.2-3.9-3.2-9.3-1.1-9.5c1.9-0.2,11.2,4.3,16,3.8c0.9-1.4,1.7-3.7,1.4-6.1c-0.7-6-4.7-9.6-8.4-12.7c-1.1,3.9-1.7,7.3-2.4,12
		C643.3,286.9,637.8,284.8,638.2,281.5z"/>
	<path class="st0" d="M709.3,275.3c-0.5,5.3-4,10-10.5,10.8c-1.7,0.2-3.3,0.2-4.8-0.1c-1.9,4.4-5.2,7.6-10.7,8.2
		c-9.6,1.1-14.9-6.6-16-16.1c-1.6-14,5-23.4,7.1-23.7c2.5-0.3,5,4.6,2.7,6.5c-1.3,2.5-3.7,6.3-2.6,15.8c0.9,8,4.5,11.7,8.3,11.2
		c2.7-0.3,4.2-1.9,5.2-4.3c-4.9-3.3-8-9.3-8.8-16.2c-0.7-6,1.3-11.5,6.4-12.1c4.5-0.5,8.9,5.8,10,15.1c0.4,3.5,0.4,7.1-0.1,10.5
		c0.7,0.1,1.3,0,1.9,0c4.1-0.5,5.9-3.9,6.1-7.7C703.7,270.9,709.9,269.8,709.3,275.3z M689.2,277.1c0-1.6-0.1-3-0.2-4.4
		c-0.7-6.5-1.6-11.2-3.6-11c-1.1,0.1-1.4,1.7-1.1,4.7C684.8,270.7,686.7,274.5,689.2,277.1z"/>
	<path class="st0" d="M701.7,257.1c-0.2-1.8-0.7-2.3-0.7-3c-0.1-1,1-1.8,2.3-1.9c3.2-0.4,5.4,1.3,5.6,3.6l0.5,4.3
		c2-5.6,4.9-10.1,9.6-10.7c6.4-0.7,8.5,4.3,9,8.7l2.3,19.8c0.1,0.9,0.5,4.4,3,4.1c3.8-0.4,4.8-6.7,5.2-11c0.1-2,1-3,2-3.1
		c1.5-0.2,3.6,1.7,3.8,3.5c0,0.1,0,0.3,0,0.7c-0.9,6.5-3.7,15.5-11.9,16.5c-5.1,0.6-8.5-3.2-9.1-8l-2.2-19.4c-0.3-3-0.8-5.4-2.6-5.2
		c-2.8,0.3-7.7,9.2-7.5,16.8l1.6,13.9c0.2,1.8,0.6,4.1-2.2,4.4c-1.9,0.2-4.7-0.1-5.1-3.7L701.7,257.1z"/>
	<path class="st0" d="M749.9,275.5c-0.7-6.1,0.2-13.1,2.3-21.6l-7.3,0.8l-1.1,0.1c0.3,3.7,0.7,12.1-0.4,17.8
		c-0.8,4.2-6.1,1.3-5.7-2.1c0.6-3.9,0.1-11.9-0.4-16.8c-2.5-1.1-4.5-2.9-4.8-5.6c-0.3-2.7,1.8-4.7,4.3-4.9c2.3-0.3,5.1,0.6,6.6,4.4
		c3.2,0,4.1-0.1,5.1-0.2l5-0.6c1.1-0.1,5.3,2.6,5.2,4.8c0.1,1.1-2.9,12.9-1.8,22.5c0.3,2.7,1.8,5,4.4,4.7c4.4-0.5,5.3-6.8,5.7-11.1
		c0.1-2,1-3,2-3.1c1.5-0.2,3.6,1.7,3.8,3.5c0,0.3,0,0.5,0,0.7c-1,6.5-3.7,15.5-11.9,16.5C756.5,285.7,750.8,283.9,749.9,275.5z"/>
	<path class="st0" d="M762.5,229.9c-0.4-3.3,1.9-6.1,5.1-6.5c3.3-0.4,6.1,1.8,6.5,5.2c0.4,3.1-1.8,6.1-5.1,6.5
		C765.7,235.4,762.9,233,762.5,229.9z M775.5,272.7c0.1,0.9,0.5,4.4,3,4.1c3.8-0.4,4.8-6.7,5.2-11c0.5-6,6.1-2.1,5.7,1.1
		c-1,6.5-3.7,15.5-11.9,16.5c-5.1,0.6-8.5-3.2-9.1-8l-2.9-25.5c-0.2-1.8-0.7-2.3-0.7-3c-0.1-1,1-1.8,2.3-1.9
		c3.1-0.4,5.4,1.3,5.6,3.6L775.5,272.7z"/>
	<path class="st0" d="M783.8,264.7c0.5-4.3,1.8-10,3-15.2c-1.1-1.3-1.9-2.7-2-4.3c-0.4-3.2,4.7-8.2,7.2-8.5c2.3-0.3,3.6,1.3,3.9,3.9
		c0.3,2.8-1.5,6.2-1.5,6.8c5.4,7.4,11.6,10.2,12.7,19.2c0.1,1.1,0.1,2.4-0.1,3.5c4.4-1.5,6.3-4.6,7-7.8c0.5-1.9,1-2.7,1.9-2.8
		c1.6-0.2,3.7,2.1,3.9,3.4c0.2,1.9-1.6,5.8-3.5,7.9c-2.7,2.7-6.4,5-12.3,6.1c-2.1,2.3-5,4.1-9,4.5c-4,0.5-8.8-1.2-11-2.8
		c-5.2-3.9-3.2-9.3-1.1-9.5c1.9-0.2,11.2,4.3,16,3.8c0.9-1.4,1.7-3.7,1.4-6.1c-0.7-6-4.7-9.6-8.4-12.7c-1.1,3.9-1.7,7.3-2.4,12
		C789,270.1,783.4,268,783.8,264.7z"/>
	<path class="st0" d="M847.9,258.3c0.1-2,1-3,2-3.1c1.5-0.2,3.6,1.7,3.8,3.5c0,0.1,0,0.3,0,0.7c-0.9,6.5-3.7,15.5-11.9,16.5
		c-3.3,0.4-6.1-0.9-7.8-3.1c-1.7,2.4-4.1,4.4-7.8,4.9c-7.4,0.9-12.1-5-13-13.1c-1.8-15.9,8.1-27,19.8-28.3c2.6-0.3,4.6,1,4.9,3.5
		c0.2,1.6,0,2.2-1,2.3c-0.9,0.1-1.8,0-2.8,0.1c-7.3,0.8-15,8-13.4,21.8c0.6,5,3,7.6,6.3,7.2c2.6-0.3,4-2.8,4.8-5.6l-1.7-14.7
		c-0.2-1.8-0.7-2.3-0.7-3c-0.1-1,1-1.8,2.3-1.9c3.2-0.4,5.4,1.3,5.6,3.6l1.8,15.8c0.2,2.1,1.5,4.3,3.8,4
		C846.5,268.9,847.5,262.6,847.9,258.3z"/>
	<path class="st0" d="M861.6,256.1c-0.2-1.5-0.4-3.6-0.5-4.9c-0.1-2.1,0.4-3.2,1.6-4.6c2.9-3.1,10-10.5,8.5-23.9
		c-1.4-12.1-7.8-12.7-10.6-12.4c-4.5,0.5-8.7,4.1-7.7,12.8c0.5,4.1,2.5,9.2,4.4,9c0.4,0,0.6-0.3,0.8-0.3c0.6-0.1,0.9,0.3,1,0.8
		c0.2,1.5-1.8,4.6-4.8,4.9c-4.1,0.5-7.9-7.2-8.6-13.5c-1.5-12.9,6-19.6,14.2-20.5c10.3-1.2,17.3,6.6,18.7,18.5
		c1.5,13.4-4.2,21.1-9.2,27.1c-0.9,1.2-0.9,2.5-0.7,3.9l0.4,3.7C869.5,260.9,862,259.8,861.6,256.1z M871.2,267.3
		c0.3,2.4-1.5,4.7-4.1,5c-2.6,0.3-4.9-1.6-5.2-3.9c-0.3-2.6,1.6-4.8,4.1-5.1C868.7,263,870.9,264.8,871.2,267.3z"/>
</g>
<path class="st0" d="M691.1,453.7c-0.6,0-1.1-0.2-1.6-0.5c-0.6-0.4-15.6-9.6-30.7-22.7c-20.8-18-31.3-34-31.3-47.5
	c0.1-18.7,15-39.5,36.3-39.5c9.5,0,16.6,4,25.7,11.3c4.6-3.6,10.1-6.6,15.8-8.5c4.8-1.8,9.2-2.8,13.1-2.8
	c21.3,0,36.2,20.8,36.3,39.5c0.1,13.5-10.5,29.5-31.3,47.5c-15.2,13.1-30.1,22.4-30.7,22.7C692.3,453.5,691.7,453.7,691.1,453.7
	 M663.8,349.7c-14.2,0-30,13.7-30.1,33.4c-0.1,11.4,10,26.2,29.1,42.7c12,10.4,24.1,18.4,28.3,21.2c4.3-2.8,16.4-10.8,28.4-21.2
	c19.1-16.5,29.1-31.3,29.1-42.7c-0.1-19.7-16-33.4-30.1-33.4c-3.1,0-6.9,0.8-10.9,2.4c0,0-0.1,0-0.1,0c-4.7,1.6-9.2,4-13,6.8
	c2.9,2.8,9.4,10.4,6.8,17.9c-1.7,4.9-6,7.9-11.2,7.9c-3.8,0-7.5-1.7-9.8-4.4c-2-2.5-2.8-5.6-2.2-8.8c0.8-4.3,3.2-8.5,6.9-12.5
	C676.1,352,670.6,349.7,663.8,349.7 M689.7,363c-3.1,3.2-5,6.5-5.6,9.7c-0.3,1.4,0,2.7,0.9,3.7c1.1,1.3,3,2.2,5,2.2
	c1.5,0,4.2-0.5,5.3-3.8C696.7,370.9,692.4,365.5,689.7,363"/>
<path class="st0" d="M858.4,164.6c-0.3,0-0.5,0-0.8-0.1c-1.8-0.4-2.9-2.3-2.4-4c8.4-33.5-11.2-49.1-31.9-65.6
	c-12.5-9.9-25.3-20.1-31.2-34.4C751.8,73.2,701.2,73,656,72.7c-46.3-0.2-86.3-0.4-96.7,14c-3.2,4.3-3.5,10.1-1,17.6
	c0.6,1.7-0.4,3.6-2.1,4.2c-1.7,0.6-3.6-0.4-4.2-2.1c-3.2-9.5-2.5-17.5,1.9-23.6c12.5-17.2,52-17,102.1-16.7
	c44.6,0.2,94.6,0.5,134-11.9c-0.8-3.4-1.3-7-1.3-10.8c0-7.6,4-12.7,10.9-13.6c7-1,16.3,3.1,18.1,10c1,3.6,0.6,10.5-12.8,16.1
	c-2.1,0.9-4.3,1.7-6.5,2.5c5.4,12.5,16.9,21.7,29,31.3c20.4,16.3,43.6,34.7,34.2,72.4C861.2,163.6,859.9,164.6,858.4,164.6
	 M801.8,36.3c-0.4,0-0.9,0-1.3,0.1c-3.5,0.5-5.2,2.8-5.2,7c0,3.1,0.4,6,1,8.7c2.1-0.7,4.1-1.5,6.1-2.3c6.2-2.6,9.6-5.7,9-8.2
	C810.7,39,806.2,36.3,801.8,36.3"/>
<path class="st0" d="M531.7,407.2c-3.1,0-6.1-0.8-8.4-2.6c-3.9-3-8.5-10.6,3.1-27.7c-42.8-45.3-37.4-74.9-32.1-103.7
	c2.6-13.9,5-27.1,1.7-41.9c-0.4-1.7,0.7-3.3,2.4-3.7c1.7-0.4,3.3,0.7,3.7,2.4c3.5,16,0.9,30.4-1.7,44.3c-2.7,14.6-5.4,29.6-1.1,46.7
	c4.1,16.2,14.2,32.9,30.9,50.8c36.2-45.2,109.6-32.9,134.2-28.8c1.1,0.2,2,0.3,2.9,0.5c1.7,0.3,2.8,1.9,2.6,3.5
	c-0.3,1.7-1.9,2.8-3.5,2.6c-0.9-0.1-1.8-0.3-2.9-0.5c-23.8-4-95.1-15.9-128.9,27.2c2,2,4.1,4.1,6.2,6.1c10.3,9.8,5.3,17.3,3.5,19.4
	C541.2,405.3,536.4,407.2,531.7,407.2 M530.9,381.5c-5.7,8.7-7.1,15.7-3.8,18.3c3.1,2.4,9.6,1.4,12.5-2c3.1-3.6,0-7.9-3.1-10.9
	C534.5,385.1,532.7,383.3,530.9,381.5"/>
<g>
	<path class="st0" d="M756.9,314.1c0.7-2,1.8-3.6,3.3-3.9c0.7-0.1,1.9,0.2,2.2,1.9l2.8,15c0.4,1.9,1.6,1.5,1.7,2.1
		c0.1,0.4-0.4,1-1.1,1.1c-0.7,0.1-2-0.2-2.5-2.4l-2.9-15.3c-0.1-0.3-0.2-0.3-0.3-0.3c-0.8,0.1-2.7,4.6-2.3,6.8l1.9,9.9
		c0.1,0.4-0.2,0.7-0.6,0.7c-0.6,0.1-1.4-0.1-1.4-0.5l-3-16c-2.3,0.7-3.8,2.8-3.2,6.1c0.4,2.1,1.7,3.2,2,3.1c0.2,0,0.3-0.2,0.4-0.2
		c0.1,0,0.2,0.1,0.3,0.3c0.2,0.9-0.4,1.8-1.1,2c-0.9,0.2-3.1-1.8-3.6-4.8c-1-5.5,2.8-8.1,5.9-8.6c0.5-0.1,1.1,0.3,1.2,0.9
		L756.9,314.1z"/>
	<path class="st0" d="M777.9,321.9c0,1.4-0.9,2.8-2.6,3.1c-0.5,0.1-0.9,0.1-1.3,0.1c-0.4,1.2-1.3,2.2-2.7,2.4
		c-2.6,0.5-4.2-1.5-4.7-4.1c-0.7-3.8,0.9-6.5,1.5-6.6c0.7-0.1,1.4,1.1,0.9,1.7c-0.3,0.7-0.9,1.8-0.4,4.3c0.4,2.2,1.5,3.1,2.5,2.9
		c0.7-0.1,1.1-0.6,1.3-1.3c-1.4-0.8-2.4-2.4-2.7-4.2c-0.3-1.6,0.1-3.1,1.5-3.4c1.2-0.2,2.5,1.4,3,3.9c0.2,1,0.3,1.9,0.2,2.8
		c0.2,0,0.3,0,0.5,0c1.1-0.2,1.5-1.2,1.5-2.2C776.3,320.8,778,320.4,777.9,321.9z M772.5,322.8c0-0.4-0.1-0.8-0.1-1.2
		c-0.3-1.8-0.6-3-1.2-2.9c-0.3,0.1-0.4,0.5-0.2,1.3C771.2,321.1,771.7,322.1,772.5,322.8z"/>
	<path class="st0" d="M776.3,321.7c0-1.2,0.3-2.8,0.5-4.2c-0.3-0.3-0.6-0.7-0.6-1.1c-0.2-0.9,1.1-2.3,1.8-2.4c0.6-0.1,1,0.3,1.1,1
		c0.1,0.7-0.3,1.7-0.3,1.9c1.6,1.9,3.4,2.5,3.8,5c0.1,0.3,0.1,0.7,0,1c1.2-0.5,1.6-1.4,1.8-2.3c0.1-0.5,0.2-0.8,0.5-0.8
		c0.4-0.1,1.1,0.5,1.1,0.9c0.1,0.5-0.3,1.6-0.8,2.2c-0.7,0.8-1.6,1.5-3.2,1.9c-0.5,0.7-1.3,1.2-2.3,1.4c-1.1,0.2-2.4-0.2-3-0.5
		c-1.5-1-1.1-2.5-0.5-2.6c0.5-0.1,3.1,1,4.4,0.7c0.2-0.4,0.4-1,0.3-1.7c-0.3-1.6-1.5-2.5-2.5-3.3c-0.2,1.1-0.3,2-0.4,3.3
		C777.8,323,776.3,322.6,776.3,321.7z"/>
	<path class="st0" d="M795.6,318.6c0,1.4-0.9,2.8-2.6,3.1c-0.5,0.1-0.9,0.1-1.3,0.1c-0.4,1.2-1.3,2.2-2.7,2.4
		c-2.6,0.5-4.2-1.5-4.7-4.1c-0.7-3.8,0.9-6.5,1.5-6.6c0.7-0.1,1.4,1.1,0.9,1.7c-0.3,0.7-0.9,1.8-0.4,4.3c0.4,2.2,1.5,3.1,2.5,2.9
		c0.7-0.1,1.1-0.6,1.3-1.3c-1.4-0.8-2.4-2.4-2.7-4.2c-0.3-1.6,0.1-3.1,1.5-3.4c1.2-0.2,2.5,1.4,3,3.9c0.2,1,0.3,1.9,0.2,2.8
		c0.2,0,0.3,0,0.5,0c1.1-0.2,1.5-1.2,1.5-2.2C793.9,317.5,795.6,317.1,795.6,318.6z M790.1,319.5c0-0.4-0.1-0.8-0.1-1.2
		c-0.3-1.8-0.6-3-1.2-2.9c-0.3,0.1-0.4,0.5-0.2,1.3C788.8,317.8,789.4,318.8,790.1,319.5z"/>
	<path class="st0" d="M792.5,310.3l-0.8-4.4c-0.1-0.7-0.4-0.8-0.4-0.9c0-0.2,0.4-0.4,0.8-0.4c0.8-0.2,1.5,0.3,1.6,0.9l0.8,4.5
		c1.6-0.3,3.4-0.7,5.1-1.1c0.6-0.9,0.8,1.6,0.1,1.8c-2.1,0.4-3.6,0.7-4.9,1l1.5,8.2c0.2,0.8,0.6,1.1,1.1,1c1-0.2,1.2-1.9,1.2-3.1
		c0-0.6,0.2-0.8,0.5-0.9c0.4-0.1,1,0.4,1.1,0.9c0,0,0,0.1,0,0.2c-0.1,1.8-0.7,4.3-2.9,4.7c-1.4,0.3-2.5-0.4-2.9-2.4l-1.5-8.2
		c-1.1,0.2-1.8,0.3-1.8,0.3c-0.8,0.2-1.6-1.5-0.9-1.6C790.2,310.7,791.1,310.6,792.5,310.3z"/>
	<path class="st0" d="M802,318.7c-0.3-1.6-0.2-3.6,0.2-5.9l-2,0.4l-0.3,0.1c0.2,1,0.4,3.3,0.2,4.9c-0.1,1.1-1.6,0.5-1.6-0.5
		c0.1-1.1-0.2-3.2-0.4-4.6c-0.7-0.2-1.3-0.7-1.4-1.4c-0.1-0.7,0.4-1.3,1.1-1.4c0.6-0.1,1.4,0.1,1.9,1.1c0.9-0.1,1.1-0.1,1.4-0.2
		l1.3-0.3c0.3-0.1,1.5,0.6,1.5,1.2c0.1,0.3-0.5,3.6,0,6.1c0.1,0.7,0.6,1.3,1.3,1.2c1.2-0.2,1.3-2,1.3-3.1c0-0.6,0.2-0.8,0.5-0.9
		c0.4-0.1,1,0.4,1.1,0.9c0,0.1,0,0.1,0,0.2c-0.1,1.8-0.7,4.3-2.9,4.7C804,321.4,802.4,321,802,318.7z"/>
	<path class="st0" d="M817.6,314.4c0,1.4-0.9,2.8-2.6,3.1c-0.5,0.1-0.9,0.1-1.3,0.1c-0.4,1.2-1.3,2.2-2.7,2.4
		c-2.6,0.5-4.2-1.5-4.7-4.1c-0.7-3.8,0.9-6.5,1.5-6.6c0.7-0.1,1.4,1.1,0.9,1.7c-0.3,0.7-0.9,1.8-0.4,4.3c0.4,2.2,1.5,3.1,2.5,2.9
		c0.7-0.1,1.1-0.6,1.3-1.3c-1.4-0.8-2.4-2.4-2.7-4.2c-0.3-1.6,0.1-3.1,1.5-3.4c1.2-0.2,2.5,1.4,3,3.9c0.2,1,0.3,1.9,0.2,2.8
		c0.2,0,0.3,0,0.5,0c1.1-0.2,1.5-1.2,1.5-2.2C815.9,313.4,817.6,312.9,817.6,314.4z M812.1,315.3c0-0.4-0.1-0.8-0.1-1.2
		c-0.3-1.8-0.6-3-1.2-2.9c-0.3,0.1-0.4,0.5-0.2,1.3C810.8,313.7,811.4,314.7,812.1,315.3z"/>
	<path class="st0" d="M816,314.2c0-1.2,0.3-2.8,0.5-4.2c-0.3-0.3-0.6-0.7-0.6-1.1c-0.2-0.9,1.1-2.3,1.8-2.4c0.6-0.1,1,0.3,1.1,1
		c0.1,0.7-0.3,1.7-0.3,1.9c1.6,1.9,3.4,2.5,3.8,5c0.1,0.3,0.1,0.7,0,1c1.2-0.5,1.6-1.4,1.8-2.3c0.1-0.5,0.2-0.8,0.5-0.8
		c0.4-0.1,1.1,0.5,1.1,0.9c0.1,0.5-0.3,1.6-0.8,2.2c-0.7,0.8-1.6,1.5-3.2,1.9c-0.5,0.7-1.3,1.2-2.3,1.4c-1.1,0.2-2.4-0.2-3-0.5
		c-1.5-1-1.1-2.5-0.5-2.6c0.5-0.1,3.1,1,4.4,0.7c0.2-0.4,0.4-1,0.3-1.7c-0.3-1.6-1.5-2.5-2.5-3.3c-0.2,1.1-0.3,2-0.4,3.3
		C817.5,315.6,815.9,315.1,816,314.2z"/>
	<path class="st0" d="M755.2,348.7c0-1.2,0.3-2.8,0.5-4.2c-0.3-0.3-0.6-0.7-0.6-1.1c-0.2-0.9,1.1-2.3,1.8-2.4c0.6-0.1,1,0.3,1.1,1
		c0.1,0.7-0.3,1.7-0.3,1.9c1.6,1.9,3.4,2.5,3.8,5c0.1,0.3,0.1,0.7,0,1c1.2-0.5,1.6-1.4,1.8-2.3c0.1-0.5,0.2-0.8,0.5-0.8
		c0.4-0.1,1.1,0.5,1.1,0.9c0.1,0.5-0.3,1.6-0.8,2.2c-0.7,0.8-1.6,1.5-3.2,1.9c-0.5,0.7-1.3,1.2-2.3,1.4c-1.1,0.2-2.4-0.2-3-0.5
		c-1.5-1-1.1-2.5-0.5-2.6c0.5-0.1,3.1,1,4.4,0.7c0.2-0.4,0.4-1,0.3-1.7c-0.3-1.6-1.5-2.5-2.5-3.3c-0.2,1.1-0.3,2-0.4,3.3
		C756.7,350.1,755.2,349.6,755.2,348.7z"/>
	<path class="st0" d="M772.5,345.8c0-0.6,0.2-0.8,0.5-0.9c0.4-0.1,1,0.4,1.1,0.9c0,0,0,0.1,0,0.2c-0.1,1.8-0.7,4.3-2.9,4.7
		c-0.9,0.2-1.7-0.1-2.2-0.7c-0.4,0.7-1,1.3-2,1.5c-2,0.4-3.4-1.1-3.8-3.3c-0.8-4.3,1.7-7.5,4.8-8.1c0.7-0.1,1.3,0.2,1.4,0.9
		c0.1,0.4,0,0.6-0.2,0.7c-0.2,0-0.5,0-0.8,0.1c-2,0.4-3.9,2.5-3.2,6.2c0.3,1.3,1,2,1.9,1.8c0.7-0.1,1-0.8,1.2-1.6l-0.7-4
		c-0.1-0.5-0.2-0.6-0.3-0.8c0-0.3,0.2-0.5,0.6-0.6c0.8-0.2,1.5,0.3,1.6,0.9l0.8,4.2c0.1,0.6,0.5,1.1,1.1,1
		C772.4,348.7,772.5,346.9,772.5,345.8z"/>
	<path class="st0" d="M776.5,339c1.4-0.3,3,0.8,3.5,3.7c0.2,1,0.3,2.1,0.2,3c0.2,0,0.4,0,0.5-0.1c1.1-0.2,1.5-1.2,1.5-2.2
		c0-0.6,1.7-1,1.6,0.5c0,1.4-0.9,2.8-2.6,3.1c-0.5,0.1-0.9,0.1-1.3,0.1c-0.4,1.2-1.3,2.2-2.8,2.4c-2.4,0.4-4-1.1-4.4-3.6l-2.3-12.3
		c-0.1-0.7-0.4-0.7-0.4-0.9c0-0.2,0.4-0.4,0.8-0.4c0.8-0.2,1.5,0.3,1.6,0.9l2.3,12.1c0.3,1.7,1.1,2.9,2.4,2.6c0.6-0.1,1-0.6,1.2-1.2
		c-1.7-0.8-2.9-2.4-3.3-4.2C774.5,340.3,775.3,339.2,776.5,339z M778.3,345c0-0.6-0.1-1.2-0.2-1.7c-0.3-1.7-0.9-2.6-1.4-2.5
		c-0.3,0.1-0.4,0.6-0.2,1.3C776.7,343.2,777.4,344.3,778.3,345z"/>
	<path class="st0" d="M784.7,344.7c0.5,0.8,1.4,1.4,2.7,1.1c2-0.4,2.5-2.2,2.5-3.8c0-1.2,1.6-1,1.6,0c0.1,1.6-0.3,4.9-4.1,5.6
		c-2.3,0.4-4.9-1-5.5-4.2c-0.6-3.3,0.9-6.1,2.9-6.5c1.4-0.3,2.5,0.6,2.8,2.2C788,341,787.1,343.5,784.7,344.7z M784.1,343.3
		c1.2-0.8,1.7-2.3,1.5-3.9c-0.1-0.6-0.4-0.9-0.7-0.8c-1.3,0.2-1.1,3.1-0.9,4.2C784.1,343,784.1,343.2,784.1,343.3z"/>
	<path class="st0" d="M802.6,344.8c-1.4,0.3-2.4-0.7-2.6-2l-1-5.2c-0.2-0.8-0.3-1.5-0.8-1.4c-0.7,0.1-1.7,2.6-1.5,4.7l0.7,3.8
		c0.1,0.5,0.2,1.1-0.5,1.2c-0.5,0.1-1.3,0.1-1.4-0.9l-1.2-6.5c-0.2-0.8-0.3-1.5-0.8-1.4c-0.7,0.1-1.7,2.6-1.5,4.7l0.7,3.8
		c0.1,0.5,0.2,1.1-0.5,1.2c-0.5,0.1-1.3,0.1-1.4-0.9l-1.5-8.2c-0.1-0.5-0.2-0.6-0.3-0.8c0-0.3,0.2-0.5,0.6-0.6
		c0.8-0.2,1.5,0.3,1.6,0.9l0.2,1.1c0.4-1.5,1.1-2.8,2.3-3c1.5-0.3,2.2,0.9,2.5,2c0.4-1.5,1.1-2.7,2.2-2.9c1.7-0.3,2.3,1,2.5,2.2
		l1,5.3c0,0.2,0.2,1.2,0.9,1.1c1-0.2,1.2-1.9,1.2-3.1c0-0.6,0.2-0.8,0.5-0.9c0.4-0.1,1,0.4,1.1,0.9c0,0,0,0.1,0,0.2
		C805.3,341.8,804.8,344.3,802.6,344.8z"/>
	<path class="st0" d="M815,338.1c0,1.4-0.9,2.8-2.6,3.1c-0.5,0.1-0.9,0.1-1.3,0.1c-0.4,1.2-1.3,2.2-2.7,2.4
		c-2.6,0.5-4.2-1.5-4.7-4.1c-0.7-3.8,0.9-6.5,1.5-6.6c0.7-0.1,1.4,1.1,0.9,1.7c-0.3,0.7-0.9,1.8-0.4,4.3c0.4,2.2,1.5,3.1,2.5,2.9
		c0.7-0.1,1.1-0.6,1.3-1.3c-1.4-0.8-2.4-2.4-2.7-4.2c-0.3-1.6,0.1-3.1,1.5-3.4c1.2-0.2,2.5,1.4,3,3.9c0.2,1,0.3,1.9,0.2,2.8
		c0.2,0,0.3,0,0.5,0c1.1-0.2,1.5-1.2,1.5-2.2C813.3,337,815,336.5,815,338.1z M809.5,338.9c0-0.4-0.1-0.8-0.1-1.2
		c-0.3-1.8-0.6-3-1.2-2.9c-0.3,0.1-0.4,0.5-0.2,1.3C808.2,337.3,808.8,338.3,809.5,338.9z"/>
	<path class="st0" d="M813.4,337.8c0-1.2,0.3-2.8,0.5-4.2c-0.3-0.3-0.6-0.7-0.6-1.1c-0.2-0.9,1.1-2.3,1.8-2.4c0.6-0.1,1,0.3,1.1,1
		c0.1,0.7-0.3,1.7-0.3,1.9c1.6,1.9,3.4,2.5,3.8,5c0.1,0.3,0.1,0.7,0,1c1.2-0.5,1.6-1.4,1.8-2.3c0.1-0.5,0.2-0.8,0.5-0.8
		c0.4-0.1,1.1,0.5,1.1,0.9c0.1,0.5-0.3,1.6-0.8,2.2c-0.7,0.8-1.6,1.5-3.2,1.9c-0.5,0.7-1.3,1.2-2.3,1.4c-1.1,0.2-2.4-0.2-3-0.5
		c-1.5-1-1.1-2.5-0.5-2.6c0.5-0.1,3.1,1,4.4,0.7c0.2-0.4,0.4-1,0.3-1.7c-0.3-1.6-1.5-2.5-2.5-3.3c-0.2,1.1-0.3,2-0.4,3.3
		C814.9,339.2,813.3,338.7,813.4,337.8z"/>
</g>
<path class="st0" d="M830.5,322.2c-3.4,0.5-5.1,4.3-4.7,7.2c0.8,5.2,12.2,9.9,12.2,9.9s9.4-8.1,8.5-13.2c-0.5-2.8-3.2-5.9-6.7-5.3
	c-1.6,0.3-3.4,1.6-4.4,2.7C834.2,322.7,832.1,322,830.5,322.2"/>
<g>
	<path class="st0" d="M639.2,608.9c2.7-1.7,3.4-5.3,1.5-7.9c0,0-4.2-5.8-4.2-12.6c0-12.9,10.5-23.4,23.4-23.4
		c12.9,0,23.4,10.5,23.4,23.4c0,6.9-4.2,12.6-4.2,12.6c-1.9,2.6-1.3,6.1,1.5,7.9c0,0,16.6,3.4,30.5,16.9c2.6,2.6,6.6,1.4,8.2-1
		c5.4-8.3,10.9-20.7,10.9-36.5c0-55-49.6-65.2-49.6-65.2c-2.7-1.7-3.4-5.3-1.5-7.9c0,0,4.2-5.8,4.2-12.6c0-12.9-10.5-23.4-23.4-23.4
		c-12.9,0-23.4,10.5-23.4,23.4c0,6.9,4.2,12.6,4.2,12.6c1.9,2.6,1.3,6.1-1.5,7.9c0,0-49.6,10.3-49.6,65.2c0,15.2,5.2,27.4,10.4,35.7
		c2.9,4.5,7,3.3,8.9,1.5C622.8,612.3,639.2,608.9,639.2,608.9z"/>
	<g>
		<path class="st0" d="M539.4,686.1c-1.6,2.4-3.8,4.3-6.5,5.6c-2.7,1.3-6.1,1.9-10.2,1.9c-7,0-12.2-1.9-15.8-5.7
			c-3.6-3.8-5.4-9.4-5.4-16.9c0-7.3,1.7-13,5.2-17c3.5-4.1,8.7-6.1,15.6-6.1c3.7,0,7,0.6,9.9,1.8c2.9,1.2,5.1,3.1,6.6,5.6l-7.9,5.6
			c-1-1.3-2.1-2.2-3.4-2.9c-1.3-0.6-3-0.9-5-0.9c-3.6,0-6.2,1.1-7.7,3.3c-1.5,2.2-2.3,5.7-2.3,10.3c0,4.7,0.8,8.1,2.4,10.2
			c1.6,2.2,4.3,3.2,8.1,3.2c1.6,0,3.2-0.2,4.5-0.7c1.4-0.5,2.7-1.5,3.9-3.1L539.4,686.1z"/>
		<path class="st0" d="M571,692.2v-4.5c-4.2,3.8-8.7,5.8-13.5,5.8c-4.8,0-8.4-1.3-10.8-3.8c-2.4-2.5-3.7-5.7-3.7-9.7
			c0-3.1,0.6-5.6,1.9-7.6c1.3-2,3.1-3.6,5.6-4.7c2.5-1.1,6-1.9,10.6-2.4l9.1-0.9v-1.9c0-2.4-0.7-4.1-2.2-5c-1.5-0.9-3.6-1.3-6.4-1.3
			c-2.3,0-4.3,0.4-6,1.2c-1.7,0.8-2.9,1.9-3.7,3.3l-8.3-5.3c1.5-2.4,3.7-4.3,6.8-5.6c3.1-1.3,6.9-2,11.2-2c6.7,0,11.6,1.2,14.6,3.5
			c3,2.3,4.5,6.2,4.5,11.6v29.4H571z M570.2,672.2l-5.4,0.5c-3.8,0.3-6.6,1.1-8.3,2.2c-1.7,1.1-2.5,2.8-2.5,5.1c0,2,0.5,3.3,1.6,4.1
			c1.1,0.7,2.6,1.1,4.4,1.1c1.3,0,2.9-0.4,4.7-1.2c1.9-0.8,3.7-2,5.5-3.4V672.2z"/>
		<path class="st0" d="M616.6,692.2v-23.8c0-4.5-0.4-7.5-1.2-9c-0.8-1.5-2.3-2.3-4.6-2.3c-3.2,0-7,2.1-11.4,6.3v28.8h-10.6V649h10.6
			v5.6c2.3-2.3,4.7-4,7.2-5.1c2.6-1.2,5.1-1.7,7.5-1.7c4.4,0,7.7,1.2,9.9,3.6c2.2,2.4,3.3,6.4,3.3,12v28.8H616.6z"/>
		<path class="st0" d="M669.7,691.2c0,3.3-0.3,6-0.9,8.2s-1.5,4-2.8,5.3c-1.2,1.4-2.8,2.3-4.6,2.9c-1.8,0.6-4,0.9-6.4,0.9
			c-1.8,0-3.4-0.1-4.9-0.4c-1.5-0.2-2.9-0.6-4.1-1c-1.2-0.4-2.3-0.9-3.3-1.4c-0.9-0.5-1.7-1.1-2.3-1.6l1.9-2.6
			c1.2,1.2,2.9,2.2,5,2.9c2.1,0.7,4.7,1.1,7.7,1.1c2.1,0,3.8-0.3,5.3-0.8c1.4-0.5,2.6-1.4,3.5-2.5c0.9-1.1,1.5-2.6,1.9-4.4
			c0.4-1.8,0.6-4,0.6-6.5v-5.4c-0.9,0.9-1.8,1.7-2.8,2.4c-1,0.8-2.1,1.4-3.3,2c-1.2,0.6-2.4,1-3.6,1.4c-1.3,0.3-2.6,0.5-3.9,0.5
			c-5.3,0-9.2-1.8-11.8-5.4c-2.6-3.6-3.8-9.2-3.8-16.6c0-3.4,0.3-6.4,1-9.2c0.7-2.7,1.7-5.1,3.1-7.1c1.4-2,3.1-3.5,5.2-4.6
			c2.1-1.1,4.5-1.6,7.2-1.6c2.3,0,4.5,0.5,6.6,1.4c2.1,0.9,4.1,2.2,6.1,3.7V649h3.5V691.2z M666.2,656.5c-2.4-1.8-4.7-3.2-6.6-4.2
			c-2-1-4-1.5-6.1-1.5c-4.2,0-7.4,1.6-9.5,4.9c-2.2,3.3-3.2,8.1-3.2,14.3c0,1.5,0,2.9,0.1,4.4c0.1,1.5,0.2,3,0.5,4.4
			c0.3,1.4,0.7,2.7,1.2,4c0.5,1.3,1.2,2.3,2.1,3.3c0.9,0.9,2,1.7,3.3,2.2c1.3,0.5,2.9,0.8,4.8,0.8c1.4,0,2.8-0.2,4.1-0.7
			c1.3-0.5,2.5-1,3.6-1.7c1.1-0.7,2.2-1.5,3.1-2.3c0.9-0.8,1.8-1.6,2.6-2.4V656.5z"/>
		<path class="st0" d="M707.5,692.2v-7.2c-1.3,1.2-2.6,2.4-3.9,3.4c-1.2,1-2.5,1.9-3.7,2.7c-1.2,0.7-2.5,1.3-3.8,1.8
			c-1.3,0.4-2.7,0.6-4.2,0.6c-2,0-3.8-0.3-5.2-0.9c-1.4-0.6-2.6-1.5-3.5-2.6c-0.9-1.1-1.6-2.6-2-4.2c-0.4-1.7-0.6-3.6-0.6-5.7
			c0-1.9,0.2-3.6,0.7-5.2c0.4-1.6,1.3-3,2.6-4.3c1.3-1.2,3.1-2.3,5.5-3.1c2.4-0.8,5.5-1.5,9.3-1.8l8.9-0.9v-2.3c0-2-0.2-3.7-0.5-5.2
			c-0.4-1.5-1-2.7-1.9-3.7c-0.9-1-2.1-1.7-3.6-2.2c-1.5-0.5-3.3-0.7-5.6-0.7c-1.8,0-3.3,0.1-4.6,0.5c-1.3,0.3-2.4,0.7-3.3,1.2
			c-0.9,0.5-1.7,1.1-2.3,1.8c-0.6,0.7-1.1,1.4-1.6,2.2l-2.6-1.7c0.7-1.1,1.4-2.1,2.2-3c0.8-0.9,1.8-1.6,2.9-2.2
			c1.1-0.6,2.4-1.1,3.9-1.4c1.5-0.3,3.2-0.5,5.2-0.5c2.8,0,5.2,0.3,7.1,0.9c1.9,0.6,3.5,1.5,4.7,2.7c1.2,1.2,2,2.8,2.6,4.7
			c0.5,1.9,0.8,4.1,0.8,6.8v29.4H707.5z M707.5,667.9l-8.7,0.9c-3,0.3-5.5,0.7-7.4,1.3c-1.9,0.6-3.4,1.3-4.4,2.2
			c-1.1,0.9-1.8,2-2.2,3.3c-0.4,1.3-0.6,2.7-0.6,4.4c0,3.7,0.6,6.4,1.8,8c1.2,1.7,3.2,2.5,6,2.5c1,0,1.9-0.1,2.8-0.3
			c0.9-0.2,1.9-0.6,3.1-1.3c1.1-0.6,2.5-1.6,4-2.7c1.5-1.2,3.4-2.7,5.5-4.6V667.9z"/>
		<path class="st0" d="M769.3,692.2v-27.7c0-3-0.1-5.3-0.4-7.1c-0.3-1.8-0.7-3.1-1.2-4.1c-0.5-0.9-1.2-1.6-2-1.9
			c-0.8-0.3-1.8-0.5-2.9-0.5c-1.2,0-2.4,0.2-3.4,0.5c-1,0.4-2.1,0.9-3.2,1.6c-1.1,0.7-2.2,1.7-3.4,2.8c-1.2,1.1-2.5,2.5-4.1,4v32.2
			h-3.5V664c0-2.7-0.1-5-0.4-6.7c-0.3-1.7-0.7-3-1.2-3.9c-0.6-0.9-1.3-1.6-2.1-1.9c-0.9-0.3-1.9-0.5-3.2-0.5c-1.1,0-2.1,0.2-3.2,0.7
			c-1.1,0.5-2.2,1.1-3.3,1.9c-1.1,0.8-2.3,1.7-3.4,2.8c-1.2,1.1-2.4,2.3-3.6,3.6v32.2h-3.5V649h3.5v7.3c2.5-2.7,4.9-4.8,7.1-6.3
			c2.3-1.5,4.5-2.3,6.7-2.3c2.9,0,5.1,0.7,6.8,2.1c1.6,1.4,2.7,3.7,3.1,6.8c1.3-1.5,2.5-2.8,3.7-3.9c1.1-1.1,2.3-2,3.4-2.8
			c1.1-0.8,2.3-1.3,3.5-1.7c1.2-0.4,2.5-0.6,3.9-0.6c2.1,0,3.9,0.4,5.1,1.2c1.3,0.8,2.3,1.9,3,3.3c0.7,1.4,1.2,3,1.4,4.9
			c0.2,1.9,0.3,4,0.3,6.2v28.8H769.3z"/>
		<path class="st0" d="M786.3,669.8c0,3.9,0.2,7.1,0.6,9.8c0.4,2.6,1.1,4.8,2.1,6.4c0.9,1.6,2.2,2.8,3.7,3.5
			c1.6,0.7,3.5,1.1,5.7,1.1c1.3,0,2.5-0.1,3.6-0.3c1.1-0.2,2.1-0.6,3-1.1c0.9-0.5,1.8-1.2,2.7-2.1c0.8-0.9,1.6-1.9,2.4-3.2l2.7,1.9
			c-0.7,1.2-1.5,2.3-2.4,3.3c-0.9,1-1.9,1.8-3,2.5c-1.1,0.7-2.4,1.2-3.9,1.6c-1.5,0.4-3.2,0.6-5.1,0.6c-2.7,0-5-0.4-7-1.2
			c-2-0.8-3.6-2.1-4.9-3.9c-1.3-1.8-2.3-4.1-2.9-7c-0.6-2.9-1-6.4-1-10.5c0-3.9,0.3-7.3,0.9-10.2c0.6-2.9,1.6-5.3,2.9-7.3
			c1.3-1.9,3-3.4,5.1-4.3c2.1-1,4.5-1.4,7.4-1.4c5.1,0,8.9,1.6,11.3,4.8c2.4,3.2,3.6,8,3.6,14.3v2.9H786.3z M810.3,666.8
			c-0.1-3-0.3-5.5-0.8-7.5c-0.5-2-1.2-3.7-2.2-4.9c-0.9-1.3-2.1-2.2-3.5-2.7c-1.4-0.6-3-0.8-4.9-0.8c-2.1,0-4,0.3-5.5,0.9
			c-1.5,0.6-2.8,1.6-3.8,2.9c-1,1.3-1.8,3-2.3,5c-0.5,2-0.9,4.4-1,7.2H810.3z"/>
	</g>
</g>
</svg>
