<?xml version="1.0" standalone="no"?>
<!DOCTYPE svg PUBLIC "-//W3C//DTD SVG 1.1//EN" "http://www.w3.org/Graphics/SVG/1.1/DTD/svg11.dtd">
<svg xmlns="http://www.w3.org/2000/svg" xmlns:xlink="http://www.w3.org/1999/xlink" version="1.1" id="Layer_1" x="0px" y="0px" width="128" height="39" viewBox="0 0 128 39" enable-background="new 0 0 128 39" xml:space="preserve">
<path fill="#FFFFFF" d="M13.359,33.824c0.7-0.451,0.87-1.369,0.376-2.039c0,0-1.1-1.494-1.1-3.278c0-3.348,2.714-6.062,6.062-6.062  s6.062,2.714,6.062,6.062c0,1.784-1.099,3.278-1.099,3.278c-0.495,0.67-0.325,1.588,0.376,2.039c0,0,4.294,0.884,7.908,4.389  c0.683,0.661,1.724,0.362,2.118-0.248c1.392-2.158,2.82-5.368,2.82-9.458c0-14.244-12.846-16.909-12.846-16.909  c-0.701-0.451-0.871-1.369-0.376-2.039c0,0,1.099-1.494,1.099-3.278c0-3.348-2.714-6.061-6.062-6.061s-6.062,2.713-6.062,6.061  c0,1.784,1.1,3.278,1.1,3.278c0.494,0.67,0.324,1.588-0.376,2.039c0,0-12.847,2.665-12.847,16.909c0,3.949,1.339,7.093,2.702,9.256  c0.742,1.177,1.809,0.858,2.3,0.388C9.114,34.695,13.359,33.824,13.359,33.824z"/>
<g>
	<path fill="#FFFFFF" d="M56.85,25.925c-0.427,0.635-0.99,1.114-1.688,1.441c-0.698,0.327-1.581,0.491-2.648,0.491   c-1.809,0-3.175-0.493-4.102-1.479c-0.925-0.986-1.388-2.447-1.388-4.385c0-1.887,0.449-3.357,1.346-4.411   c0.897-1.053,2.243-1.581,4.037-1.581c0.961,0,1.817,0.157,2.568,0.47c0.751,0.313,1.323,0.797,1.714,1.453l-2.05,1.462   c-0.249-0.333-0.542-0.581-0.876-0.743c-0.335-0.159-0.765-0.239-1.292-0.239c-0.939,0-1.609,0.287-2.008,0.865   c-0.399,0.576-0.598,1.469-0.598,2.68c0,1.21,0.205,2.097,0.614,2.654c0.409,0.56,1.109,0.839,2.099,0.839   c0.427,0,0.818-0.061,1.175-0.183c0.356-0.121,0.694-0.388,1.015-0.801L56.85,25.925z"/>
	<path fill="#FFFFFF" d="M65.053,27.525v-1.164c-1.09,0.999-2.258,1.496-3.503,1.496c-1.239,0-2.175-0.325-2.809-0.978   s-0.95-1.485-0.95-2.505c0-0.797,0.162-1.455,0.486-1.974c0.324-0.521,0.804-0.928,1.442-1.225c0.637-0.296,1.554-0.503,2.75-0.625   l2.36-0.224v-0.502c0-0.626-0.188-1.055-0.566-1.287c-0.378-0.23-0.929-0.347-1.656-0.347c-0.598,0-1.113,0.099-1.543,0.299   c-0.431,0.199-0.75,0.484-0.956,0.854l-2.147-1.377c0.377-0.635,0.968-1.12,1.773-1.458c0.804-0.339,1.776-0.508,2.916-0.508   c1.744,0,3.002,0.304,3.775,0.914c0.772,0.609,1.158,1.607,1.158,2.996v7.614H65.053z M64.828,22.326l-1.399,0.127   c-0.99,0.086-1.704,0.275-2.142,0.565c-0.438,0.293-0.656,0.73-0.656,1.313c0,0.515,0.142,0.865,0.427,1.055   c0.285,0.187,0.662,0.281,1.132,0.281c0.335,0,0.743-0.105,1.223-0.316c0.48-0.208,0.952-0.505,1.415-0.891V22.326z"/>
	<path fill="#FFFFFF" d="M76.874,27.525v-6.172c0-1.167-0.105-1.948-0.313-2.339c-0.211-0.392-0.607-0.587-1.191-0.587   c-0.819,0-1.805,0.541-2.958,1.624v7.475h-2.756V16.323h2.756v1.453c0.583-0.584,1.206-1.026,1.868-1.325   c0.662-0.299,1.311-0.449,1.944-0.449c1.146,0,2,0.314,2.563,0.94c0.563,0.626,0.845,1.663,0.845,3.108v7.475H76.874z"/>
	<path fill="#FFFFFF" d="M90.643,27.259c0,0.848-0.081,1.556-0.241,2.126s-0.4,1.031-0.722,1.382   c-0.32,0.354-0.719,0.605-1.196,0.754c-0.476,0.15-1.032,0.226-1.666,0.226c-0.463,0-0.89-0.032-1.281-0.097   c-0.391-0.064-0.746-0.148-1.063-0.252c-0.317-0.104-0.598-0.222-0.844-0.357c-0.245-0.136-0.447-0.277-0.604-0.426l0.502-0.663   c0.313,0.313,0.743,0.56,1.292,0.742c0.549,0.181,1.214,0.271,1.997,0.271c0.542,0,0.997-0.068,1.367-0.209   c0.37-0.138,0.669-0.354,0.897-0.649c0.228-0.295,0.392-0.678,0.49-1.144c0.101-0.467,0.151-1.026,0.151-1.683v-1.398   c-0.223,0.222-0.466,0.43-0.732,0.63s-0.55,0.375-0.849,0.523c-0.3,0.15-0.612,0.269-0.939,0.359   c-0.328,0.088-0.663,0.131-1.005,0.131c-1.373,0-2.392-0.467-3.055-1.403c-0.662-0.936-0.993-2.373-0.993-4.309   c0-0.876,0.091-1.67,0.272-2.383c0.181-0.711,0.45-1.322,0.807-1.832c0.355-0.509,0.804-0.903,1.34-1.18   c0.537-0.278,1.162-0.417,1.875-0.417c0.591,0,1.159,0.124,1.703,0.369c0.545,0.245,1.07,0.567,1.576,0.966v-1.015h0.919V27.259z    M89.724,18.255c-0.635-0.469-1.208-0.833-1.72-1.089c-0.513-0.256-1.04-0.384-1.581-0.384c-1.09,0-1.914,0.427-2.473,1.282   s-0.839,2.09-0.839,3.707c0,0.377,0.009,0.762,0.027,1.151c0.019,0.395,0.063,0.772,0.135,1.139   c0.07,0.368,0.173,0.713,0.309,1.035c0.135,0.325,0.318,0.607,0.55,0.851c0.231,0.241,0.519,0.435,0.859,0.576   c0.342,0.143,0.759,0.213,1.25,0.213c0.37,0,0.725-0.058,1.063-0.176c0.338-0.116,0.652-0.268,0.945-0.448s0.562-0.379,0.807-0.594   c0.246-0.213,0.468-0.42,0.668-0.617V18.255z"/>
	<path fill="#FFFFFF" d="M100.424,27.525v-1.857c-0.349,0.321-0.684,0.613-1.003,0.881c-0.32,0.267-0.642,0.497-0.962,0.69   c-0.32,0.191-0.651,0.343-0.993,0.452c-0.341,0.112-0.709,0.166-1.1,0.166c-0.526,0-0.977-0.075-1.347-0.229   c-0.37-0.155-0.673-0.379-0.908-0.674c-0.234-0.295-0.406-0.66-0.517-1.095c-0.11-0.433-0.165-0.928-0.165-1.485   c0-0.482,0.056-0.935,0.17-1.35c0.113-0.418,0.34-0.785,0.678-1.105c0.338-0.321,0.815-0.592,1.431-0.813   c0.617-0.221,1.423-0.377,2.42-0.47l2.296-0.225v-0.587c0-0.512-0.046-0.959-0.138-1.34c-0.093-0.381-0.256-0.698-0.486-0.95   c-0.231-0.253-0.54-0.442-0.925-0.566c-0.384-0.125-0.863-0.188-1.44-0.188c-0.464,0-0.861,0.039-1.191,0.118   c-0.331,0.079-0.614,0.185-0.849,0.32c-0.235,0.135-0.432,0.294-0.588,0.475c-0.157,0.182-0.295,0.375-0.418,0.583l-0.672-0.437   c0.171-0.286,0.364-0.542,0.582-0.77c0.217-0.228,0.472-0.419,0.764-0.577c0.293-0.156,0.632-0.279,1.021-0.364   c0.388-0.085,0.838-0.128,1.352-0.128c0.726,0,1.339,0.076,1.836,0.23c0.499,0.153,0.901,0.39,1.207,0.71   c0.306,0.319,0.527,0.725,0.662,1.217c0.136,0.492,0.203,1.075,0.203,1.752v7.614H100.424z M100.424,21.204l-2.242,0.224   c-0.784,0.079-1.421,0.192-1.911,0.343c-0.493,0.149-0.876,0.34-1.154,0.577c-0.277,0.234-0.469,0.515-0.572,0.844   c-0.104,0.327-0.155,0.708-0.155,1.141c0,0.955,0.16,1.65,0.477,2.083c0.315,0.435,0.839,0.652,1.565,0.652   c0.248,0,0.491-0.026,0.73-0.08s0.506-0.163,0.801-0.331c0.297-0.168,0.639-0.402,1.031-0.706c0.392-0.301,0.869-0.701,1.431-1.201   V21.204z"/>
	<path fill="#FFFFFF" d="M116.443,27.525V20.35c0-0.77-0.033-1.385-0.102-1.848c-0.067-0.462-0.17-0.817-0.309-1.063   c-0.14-0.246-0.313-0.407-0.524-0.486c-0.209-0.078-0.461-0.118-0.751-0.118c-0.322,0-0.617,0.046-0.888,0.139   c-0.271,0.093-0.544,0.235-0.817,0.427c-0.274,0.192-0.565,0.437-0.876,0.731c-0.31,0.296-0.66,0.644-1.052,1.042v8.351h-0.918   V20.2c0-0.712-0.033-1.287-0.103-1.725c-0.066-0.438-0.175-0.778-0.319-1.02c-0.146-0.242-0.332-0.406-0.556-0.492   c-0.225-0.085-0.496-0.128-0.816-0.128c-0.278,0-0.556,0.06-0.833,0.177c-0.279,0.117-0.562,0.28-0.851,0.485   c-0.288,0.208-0.583,0.453-0.887,0.737c-0.302,0.287-0.617,0.599-0.944,0.941v8.351h-0.919V16.323h0.919v1.89   c0.647-0.689,1.266-1.231,1.853-1.623c0.588-0.392,1.17-0.587,1.747-0.587c0.748,0,1.335,0.184,1.762,0.55   c0.428,0.367,0.695,0.957,0.802,1.768c0.341-0.384,0.659-0.721,0.955-1.009c0.296-0.289,0.589-0.531,0.882-0.727   c0.291-0.196,0.592-0.342,0.897-0.438s0.64-0.144,1.004-0.144c0.554,0,0.999,0.102,1.334,0.304   c0.335,0.204,0.593,0.484,0.774,0.844c0.183,0.359,0.303,0.787,0.363,1.282s0.09,1.034,0.09,1.619v7.475H116.443z"/>
	<path fill="#FFFFFF" d="M120.865,21.706c0,1.003,0.057,1.849,0.166,2.537c0.109,0.687,0.288,1.238,0.534,1.655   c0.245,0.416,0.567,0.715,0.97,0.897c0.403,0.181,0.897,0.271,1.481,0.271c0.34,0,0.651-0.028,0.934-0.086   c0.282-0.057,0.545-0.153,0.79-0.289c0.245-0.133,0.476-0.313,0.688-0.538c0.213-0.224,0.424-0.503,0.631-0.839l0.706,0.482   c-0.194,0.318-0.402,0.606-0.626,0.858c-0.225,0.252-0.484,0.469-0.779,0.646c-0.295,0.179-0.633,0.316-1.014,0.411   c-0.384,0.097-0.824,0.145-1.33,0.145c-0.697,0-1.307-0.104-1.823-0.311c-0.515-0.206-0.942-0.54-1.28-1.003   c-0.338-0.462-0.59-1.067-0.758-1.81c-0.168-0.745-0.252-1.65-0.252-2.719c0-1.004,0.08-1.883,0.241-2.638   c0.159-0.755,0.411-1.382,0.753-1.881c0.341-0.497,0.779-0.872,1.313-1.12c0.533-0.25,1.175-0.375,1.922-0.375   c1.325,0,2.301,0.417,2.927,1.25c0.626,0.832,0.94,2.063,0.94,3.694v0.759H120.865z M127.081,20.926   c-0.015-0.769-0.086-1.417-0.213-1.944c-0.129-0.526-0.316-0.951-0.562-1.276c-0.246-0.324-0.549-0.558-0.913-0.705   c-0.363-0.146-0.783-0.219-1.261-0.219c-0.556,0-1.031,0.082-1.432,0.246c-0.398,0.164-0.728,0.416-0.987,0.753   c-0.261,0.338-0.459,0.767-0.597,1.287c-0.14,0.519-0.224,1.139-0.252,1.858H127.081z"/>
</g>
</svg>